<svg width="139" height="266" fill="none" xmlns="http://www.w3.org/2000/svg">
    <rect width="139" height="266" rx="5" fill="#000" fill-opacity=".46"/>
    <rect x=".5" y=".5" width="138" height="265" rx="4.5" stroke="#fff" stroke-opacity=".35"/>
    <path d="M57.597 19.03c0-.707.24-1.295.723-1.766.482-.475 1.099-.713 1.852-.713.753 0 1.37.238 1.852.713.482.47.723 1.06.723 1.765 0 .724-.24 1.329-.723 1.813-.482.484-1.1.727-1.852.727-.753 0-1.37-.243-1.852-.727s-.723-1.088-.723-1.813zm1.246 0c0 .416.124.762.372 1.038.252.276.571.414.957.414s.702-.138.95-.414c.252-.276.379-.622.379-1.039 0-.398-.127-.729-.379-.991a1.239 1.239 0 00-.95-.4 1.26 1.26 0 00-.957.4c-.248.262-.372.593-.372.991zm4.67 2.457v-4.854h1.22l1.363 2.267c.055.095.117.213.185.353.07.136.124.25.166.34l.062.136h.013a8.33 8.33 0 01-.055-.829v-2.267h1.205v4.854H66.46l-1.37-2.26a7.127 7.127 0 01-.186-.347 14.03 14.03 0 01-.165-.346l-.062-.136h-.014c.037.348.056.625.056.828v2.261h-1.205zm5.191 0v-4.854h3.085v1.018h-1.88v.883h1.501v1.018h-1.5v.917h1.976v1.018h-3.181z" fill="url(#paint0_linear)"/>
    <path d="M73.291 21.487v-4.753h.276l2.747 3.728.393.597h.014a6.466 6.466 0 01-.035-.597v-3.728h.296v4.753h-.275l-2.748-3.727-.392-.598h-.014c.023.24.035.44.035.598v3.727h-.296zm5.165 0v-4.753h.296v4.753h-.296zm1.444-2.376c0-.688.23-1.27.689-1.745.464-.476 1.035-.713 1.715-.713.67 0 1.23.179 1.68.536l-.18.224a2.04 2.04 0 00-.681-.346 2.613 2.613 0 00-.82-.136c-.6 0-1.101.209-1.5.625-.395.416-.593.935-.593 1.555 0 .62.193 1.138.579 1.555.39.416.881.624 1.473.624.312 0 .613-.07.902-.21.294-.14.544-.33.75-.57v-.917h-.86v-.272h1.157v2.166h-.296v-.414l.007-.204h-.014a2.144 2.144 0 01-.716.51 2.29 2.29 0 01-.93.19c-.67 0-1.232-.236-1.687-.706-.45-.476-.675-1.06-.675-1.752zm5.515 2.376v-4.753h.296v2.234h3.057v-2.234h.296v4.753h-.296V19.24h-3.057v2.247h-.296zm6.308 0v-4.481h-1.797v-.272h3.89v.272H92.02v4.481h-.296z" fill="#fff"/>
    <path d="M48.344 24.367a1.5 1.5 0 01-.66-.154c-.617-.304-1.82-.956-2.956-1.907-1.477-1.237-2.353-2.565-2.602-3.947a3.723 3.723 0 01.759-3.007 3.388 3.388 0 012.675-1.28 3.514 3.514 0 012.784 1.354 3.526 3.526 0 012.959-1.35c.985.048 1.873.501 2.5 1.277.677.837.953 1.933.76 3.006-.25 1.382-1.126 2.71-2.603 3.947-1.136.95-2.34 1.603-2.956 1.907-.204.1-.432.154-.66.154z" fill="url(#paint1_linear)"/>
    <path d="M48.344 23.608c-.163 0-.326-.037-.472-.106-.572-.272-1.687-.855-2.737-1.704-1.34-1.083-2.132-2.235-2.355-3.424-.167-.891.07-1.8.652-2.493a2.911 2.911 0 012.27-1.05 3.05 3.05 0 012.37 1.113l.273.337.272-.337a3.05 3.05 0 012.52-1.11c.835.04 1.588.411 2.12 1.047.582.693.819 1.602.652 2.493-.222 1.189-1.014 2.34-2.354 3.424-1.05.849-2.166 1.432-2.737 1.704-.147.07-.31.106-.474.106z" fill="url(#paint2_linear)"/>
    <path d="M53.803 15.353a3.495 3.495 0 00-.806-.732 3.73 3.73 0 01.583 2.77c-.25 1.38-1.125 2.709-2.602 3.946-1.136.95-2.34 1.603-2.956 1.907a1.5 1.5 0 01-1.32 0c-.617-.304-1.82-.956-2.956-1.907-.05-.041-.097-.082-.144-.123.325.37.7.735 1.126 1.092 1.136.95 2.34 1.603 2.956 1.907a1.5 1.5 0 001.32 0c.617-.304 1.82-.956 2.956-1.907 1.477-1.237 2.353-2.565 2.602-3.947a3.722 3.722 0 00-.759-3.006z" fill="url(#paint3_linear)"/>
    <path d="M51.303 14.077a3.514 3.514 0 00-2.959 1.35v8.94a1.5 1.5 0 00.66-.154c.617-.304 1.82-.957 2.956-1.907 1.478-1.238 2.353-2.565 2.603-3.947a3.722 3.722 0 00-.76-3.006 3.389 3.389 0 00-2.5-1.276z" fill="url(#paint4_linear)"/>
    <path fill="#6A6A6A" fill-opacity=".33" d="M1 39h68v97H1z"/>
    <path d="M12.773 119h-.565l-2.148-3.287V119h-.565v-4.266h.566l2.153 3.302v-3.302h.56V119zm2.872 0a1.137 1.137 0 01-.077-.334 1.209 1.209 0 01-.902.393c-.313 0-.57-.088-.77-.264a.864.864 0 01-.3-.674c0-.33.126-.586.376-.767.252-.184.605-.276 1.06-.276h.528v-.249a.604.604 0 00-.17-.451c-.114-.113-.28-.17-.501-.17a.795.795 0 00-.487.146c-.13.098-.196.216-.196.355h-.545c0-.158.056-.311.167-.457.113-.148.266-.266.457-.352.194-.086.405-.129.636-.129.365 0 .651.092.858.276.207.182.315.432.323.753v1.459c0 .291.037.522.11.694V119h-.567zm-.9-.413c.17 0 .331-.044.484-.132a.797.797 0 00.33-.343v-.65h-.424c-.664 0-.996.194-.996.583 0 .17.056.303.17.398a.652.652 0 00.436.144zm2.716-2.757l.015.352c.232-.274.546-.411.94-.411.443 0 .745.17.905.51.106-.152.242-.275.41-.369.17-.094.37-.141.601-.141.695 0 1.049.369 1.06 1.105V119h-.541v-2.092c0-.226-.052-.395-.156-.507-.103-.113-.277-.17-.521-.17a.716.716 0 00-.501.182.724.724 0 00-.232.483V119h-.544v-2.077c0-.461-.226-.692-.677-.692-.356 0-.599.152-.73.455V119h-.542v-3.17h.513zm6.067 3.229c-.43 0-.779-.141-1.048-.422-.27-.283-.405-.661-.405-1.134v-.1c0-.314.06-.594.179-.841a1.41 1.41 0 01.504-.58c.217-.14.451-.211.703-.211.412 0 .732.136.96.408.23.271.344.66.344 1.166v.225h-2.148c.008.313.099.566.273.759a.866.866 0 00.668.287.945.945 0 00.486-.117 1.22 1.22 0 00.349-.311l.33.258c-.265.408-.663.613-1.195.613zm-.067-2.842a.721.721 0 00-.55.24c-.15.158-.241.381-.276.668h1.588v-.041c-.016-.275-.09-.488-.223-.639a.68.68 0 00-.54-.228zm4.233-1.483l1.395 3.481 1.394-3.481h.73V119h-.563v-1.661l.053-1.793-1.4 3.454h-.43l-1.398-3.445.055 1.784V119h-.562v-4.266h.726zm4.284 2.652c0-.311.06-.59.181-.838.123-.248.293-.44.51-.574.219-.135.468-.203.747-.203.432 0 .78.15 1.046.449.267.299.401.696.401 1.192v.038c0 .309-.06.586-.178.832a1.34 1.34 0 01-.507.572c-.219.136-.471.205-.756.205-.43 0-.778-.15-1.046-.449-.266-.298-.398-.694-.398-1.186v-.038zm.544.064c0 .352.081.634.244.847a.786.786 0 00.656.319.779.779 0 00.656-.322c.162-.217.243-.52.243-.908 0-.348-.083-.629-.249-.844a.781.781 0 00-.656-.325.777.777 0 00-.647.319c-.164.213-.246.518-.246.914zm2.89-.061c0-.487.114-.877.345-1.172.23-.297.532-.446.905-.446.371 0 .665.127.882.381V114.5h.542v4.5h-.498l-.026-.34c-.217.266-.519.399-.906.399-.367 0-.667-.151-.9-.452-.23-.3-.345-.693-.345-1.177v-.041zm.541.061c0 .36.074.641.223.844a.72.72 0 00.615.305.792.792 0 00.753-.463v-1.456a.797.797 0 00-.747-.449.724.724 0 00-.621.308c-.149.205-.223.509-.223.911zm4.292 1.609c-.43 0-.78-.141-1.049-.422-.27-.283-.404-.661-.404-1.134v-.1c0-.314.06-.594.179-.841a1.41 1.41 0 01.504-.58c.216-.14.45-.211.703-.211.412 0 .732.136.96.408.23.271.343.66.343 1.166v.225h-2.147c.008.313.099.566.272.759a.866.866 0 00.668.287.945.945 0 00.487-.117 1.22 1.22 0 00.348-.311l.331.258c-.265.408-.664.613-1.195.613zm-.067-2.842a.721.721 0 00-.551.24c-.149.158-.24.381-.275.668h1.588v-.041c-.016-.275-.09-.488-.223-.639a.68.68 0 00-.54-.228zM42.7 119h-.542v-4.5h.542v4.5z" fill="#fff"/>
    <path d="M10.816 124.323c-.026.226-.11.4-.25.523-.14.122-.326.183-.558.183a.753.753 0 01-.607-.271c-.151-.18-.227-.422-.227-.725v-.205c0-.198.035-.372.106-.523a.801.801 0 01.302-.346.834.834 0 01.45-.121c.227 0 .409.063.546.19.136.126.216.301.238.525h-.282c-.025-.17-.078-.293-.16-.369a.476.476 0 00-.341-.115c-.18 0-.321.067-.424.2-.101.132-.152.321-.152.566v.207c0 .231.048.416.145.552a.468.468 0 00.406.205c.156 0 .276-.035.359-.105.084-.071.14-.195.167-.371h.282zm.271-.13c0-.155.03-.295.091-.419a.687.687 0 01.255-.287.692.692 0 01.374-.101c.216 0 .39.074.523.224.133.149.2.348.2.596v.019c0 .154-.03.293-.09.416a.672.672 0 01-.63.388.667.667 0 01-.523-.224c-.133-.149-.2-.347-.2-.593v-.019zm.273.032c0 .176.04.317.121.423.082.107.192.16.329.16a.39.39 0 00.328-.161c.08-.108.121-.26.121-.454a.67.67 0 00-.124-.422.392.392 0 00-.328-.163.39.39 0 00-.324.16c-.082.107-.123.259-.123.457zm2.489.618c-.106.124-.26.186-.465.186-.169 0-.298-.049-.386-.146-.088-.099-.133-.244-.134-.437v-1.031h.271v1.024c0 .24.098.36.293.36.207 0 .345-.077.413-.231v-1.153h.271V125h-.258l-.005-.157zm.933-1.428l.008.199a.578.578 0 01.475-.228c.335 0 .504.189.507.567V125h-.271v-1.049c-.001-.114-.027-.199-.08-.253-.05-.055-.13-.082-.238-.082a.39.39 0 00-.231.07.474.474 0 00-.156.185V125h-.27v-1.585h.256zm1.766-.384v.384h.296v.21h-.296v.982c0 .064.014.112.04.144.026.031.071.047.135.047a.642.642 0 00.129-.018v.22a.767.767 0 01-.208.029c-.121 0-.213-.036-.274-.11a.471.471 0 01-.093-.312v-.982h-.288v-.21h.288v-.384h.271zm1.38.627a.795.795 0 00-.133-.01c-.178 0-.298.076-.362.227V125h-.27v-1.585h.263l.004.183a.423.423 0 01.378-.212c.053 0 .093.007.12.02v.252zm.796.945l.369-1.188h.29l-.637 1.83c-.099.263-.256.395-.47.395l-.052-.004-.101-.019v-.22l.073.006a.358.358 0 00.214-.056.4.4 0 00.128-.203l.06-.162-.566-1.567h.296l.396 1.188zm1.7.58h-.233l.891-2.316h.232l-.89 2.316zm3.538-.86c-.026.226-.11.4-.25.523-.14.122-.326.183-.559.183a.753.753 0 01-.606-.271c-.152-.18-.227-.422-.227-.725v-.205c0-.198.035-.372.105-.523a.801.801 0 01.302-.346.834.834 0 01.451-.121c.227 0 .408.063.545.19.137.126.216.301.239.525h-.283c-.024-.17-.077-.293-.16-.369a.476.476 0 00-.34-.115c-.18 0-.322.067-.424.2-.102.132-.152.321-.152.566v.207c0 .231.048.416.145.552a.468.468 0 00.405.205c.157 0 .276-.035.36-.105.083-.071.139-.195.166-.371h.283zm.637.677h-.27v-1.585h.27V125zm-.293-2.005c0-.044.013-.081.04-.112.027-.03.067-.045.12-.045.053 0 .093.015.12.045a.163.163 0 01.041.112c0 .044-.014.08-.041.109-.027.03-.067.044-.12.044-.053 0-.093-.014-.12-.044a.155.155 0 01-.04-.109zm1.096.036v.384h.296v.21h-.296v.982c0 .064.013.112.04.144.026.031.07.047.134.047a.642.642 0 00.13-.018v.22a.766.766 0 01-.209.029c-.121 0-.212-.036-.274-.11a.471.471 0 01-.092-.312v-.982h-.289v-.21h.289v-.384h.27zm1.132 1.572l.37-1.188h.29l-.638 1.83c-.099.263-.255.395-.47.395l-.051-.004-.101-.019v-.22l.073.006a.358.358 0 00.214-.056.4.4 0 00.127-.203l.06-.162-.565-1.567h.296l.395 1.188z" fill="#fff" fill-opacity=".5"/>
    <path d="M54 45h15v7H54v-7z" fill="#C4C4C4"/>
    <path d="M56 53h13v7H56v-7z" fill="#C4C4C4"/>
    <path d="M58 61h11v7H58v-7z" fill="#C4C4C4"/>
    <path fill="#6A6A6A" fill-opacity=".33" d="M1 137h68v97H1z"/>
    <path d="M12.773 217h-.565l-2.148-3.287V217h-.565v-4.266h.566l2.153 3.302v-3.302h.56V217zm2.872 0a1.137 1.137 0 01-.077-.334 1.209 1.209 0 01-.902.393c-.313 0-.57-.088-.77-.264a.864.864 0 01-.3-.674c0-.33.126-.586.376-.767.252-.184.605-.276 1.06-.276h.528v-.249a.604.604 0 00-.17-.451c-.114-.113-.28-.17-.501-.17a.795.795 0 00-.487.146c-.13.098-.196.216-.196.355h-.545c0-.158.056-.311.167-.457.113-.148.266-.266.457-.352.194-.086.405-.129.636-.129.365 0 .651.092.858.276.207.182.315.432.323.753v1.459c0 .291.037.522.11.694V217h-.567zm-.9-.413c.17 0 .331-.044.484-.132a.797.797 0 00.33-.343v-.65h-.424c-.664 0-.996.194-.996.583 0 .17.056.303.17.398a.652.652 0 00.436.144zm2.716-2.757l.015.352c.232-.274.546-.411.94-.411.443 0 .745.17.905.51.106-.152.242-.275.41-.369.17-.094.37-.141.601-.141.695 0 1.049.369 1.06 1.105V217h-.541v-2.092c0-.226-.052-.395-.156-.507-.103-.113-.277-.17-.521-.17a.716.716 0 00-.501.182.724.724 0 00-.232.483V217h-.544v-2.077c0-.461-.226-.692-.677-.692-.356 0-.599.152-.73.455V217h-.542v-3.17h.513zm6.067 3.229c-.43 0-.779-.141-1.048-.422-.27-.283-.405-.661-.405-1.134v-.1c0-.314.06-.594.179-.841a1.41 1.41 0 01.504-.58c.217-.14.451-.211.703-.211.412 0 .732.136.96.408.23.271.344.66.344 1.166v.225h-2.148c.008.313.099.566.273.759a.866.866 0 00.668.287.945.945 0 00.486-.117 1.22 1.22 0 00.349-.311l.33.258c-.265.408-.663.613-1.195.613zm-.067-2.842a.721.721 0 00-.55.24c-.15.158-.241.381-.276.668h1.588v-.041c-.016-.275-.09-.488-.223-.639a.68.68 0 00-.54-.228zm4.233-1.483l1.395 3.481 1.394-3.481h.73V217h-.563v-1.661l.053-1.793-1.4 3.454h-.43l-1.398-3.445.055 1.784V217h-.562v-4.266h.726zm4.284 2.652c0-.311.06-.59.181-.838.123-.248.293-.44.51-.574.219-.135.468-.203.747-.203.432 0 .78.15 1.046.449.267.299.401.696.401 1.192v.038c0 .309-.06.586-.178.832a1.34 1.34 0 01-.507.572c-.219.136-.471.205-.756.205-.43 0-.778-.15-1.046-.449-.266-.298-.398-.694-.398-1.186v-.038zm.544.064c0 .352.081.634.244.847a.786.786 0 00.656.319.779.779 0 00.656-.322c.162-.217.243-.52.243-.908 0-.348-.083-.629-.249-.844a.781.781 0 00-.656-.325.777.777 0 00-.647.319c-.164.213-.246.518-.246.914zm2.89-.061c0-.487.114-.877.345-1.172.23-.297.532-.446.905-.446.371 0 .665.127.882.381V212.5h.542v4.5h-.498l-.026-.34c-.217.266-.519.399-.906.399-.367 0-.667-.151-.9-.452-.23-.3-.345-.693-.345-1.177v-.041zm.541.061c0 .36.074.641.223.844a.72.72 0 00.615.305.792.792 0 00.753-.463v-1.456a.797.797 0 00-.747-.449.724.724 0 00-.621.308c-.149.205-.223.509-.223.911zm4.292 1.609c-.43 0-.78-.141-1.049-.422-.27-.283-.404-.661-.404-1.134v-.1c0-.314.06-.594.179-.841a1.41 1.41 0 01.504-.58c.216-.14.45-.211.703-.211.412 0 .732.136.96.408.23.271.343.66.343 1.166v.225h-2.147c.008.313.099.566.272.759a.866.866 0 00.668.287.945.945 0 00.487-.117 1.22 1.22 0 00.348-.311l.331.258c-.265.408-.664.613-1.195.613zm-.067-2.842a.721.721 0 00-.551.24c-.149.158-.24.381-.275.668h1.588v-.041c-.016-.275-.09-.488-.223-.639a.68.68 0 00-.54-.228zM42.7 217h-.542v-4.5h.542v4.5z" fill="#fff"/>
    <path d="M10.816 222.323c-.026.226-.11.4-.25.523-.14.122-.326.183-.558.183a.753.753 0 01-.607-.271c-.151-.18-.227-.422-.227-.725v-.205c0-.198.035-.372.106-.523a.801.801 0 01.302-.346.834.834 0 01.45-.121c.227 0 .409.063.546.19.136.126.216.301.238.525h-.282c-.025-.17-.078-.293-.16-.369a.476.476 0 00-.341-.115c-.18 0-.321.067-.424.2-.101.132-.152.321-.152.566v.207c0 .231.048.416.145.552a.468.468 0 00.406.205c.156 0 .276-.035.359-.105.084-.071.14-.195.167-.371h.282zm.271-.13c0-.155.03-.295.091-.419a.687.687 0 01.255-.287.692.692 0 01.374-.101c.216 0 .39.074.523.224.133.149.2.348.2.596v.019c0 .154-.03.293-.09.416a.672.672 0 01-.63.388.667.667 0 01-.523-.224c-.133-.149-.2-.347-.2-.593v-.019zm.273.032c0 .176.04.317.121.423.082.107.192.16.329.16a.39.39 0 00.328-.161c.08-.108.121-.26.121-.454a.67.67 0 00-.124-.422.392.392 0 00-.328-.163.39.39 0 00-.324.16c-.082.107-.123.259-.123.457zm2.489.618c-.106.124-.26.186-.465.186-.169 0-.298-.049-.386-.146-.088-.099-.133-.244-.134-.437v-1.031h.271v1.024c0 .24.098.36.293.36.207 0 .345-.077.413-.231v-1.153h.271V223h-.258l-.005-.157zm.933-1.428l.008.199a.578.578 0 01.475-.228c.335 0 .504.189.507.567V223h-.271v-1.049c-.001-.114-.027-.199-.08-.253-.05-.055-.13-.082-.238-.082a.39.39 0 00-.231.07.474.474 0 00-.156.185V223h-.27v-1.585h.256zm1.766-.384v.384h.296v.21h-.296v.982c0 .064.014.112.04.144.026.031.071.047.135.047a.642.642 0 00.129-.018v.22a.767.767 0 01-.208.029c-.121 0-.213-.036-.274-.11a.471.471 0 01-.093-.312v-.982h-.288v-.21h.288v-.384h.271zm1.38.627a.795.795 0 00-.133-.01c-.178 0-.298.076-.362.227V223h-.27v-1.585h.263l.004.183a.423.423 0 01.378-.212c.053 0 .093.007.12.02v.252zm.796.945l.369-1.188h.29l-.637 1.83c-.099.263-.256.395-.47.395l-.052-.004-.101-.019v-.22l.073.006a.358.358 0 00.214-.056.4.4 0 00.128-.203l.06-.162-.566-1.567h.296l.396 1.188zm1.7.58h-.233l.891-2.316h.232l-.89 2.316zm3.538-.86c-.026.226-.11.4-.25.523-.14.122-.326.183-.559.183a.753.753 0 01-.606-.271c-.152-.18-.227-.422-.227-.725v-.205c0-.198.035-.372.105-.523a.801.801 0 01.302-.346.834.834 0 01.451-.121c.227 0 .408.063.545.19.137.126.216.301.239.525h-.283c-.024-.17-.077-.293-.16-.369a.476.476 0 00-.34-.115c-.18 0-.322.067-.424.2-.102.132-.152.321-.152.566v.207c0 .231.048.416.145.552a.468.468 0 00.405.205c.157 0 .276-.035.36-.105.083-.071.139-.195.166-.371h.283zm.637.677h-.27v-1.585h.27V223zm-.293-2.005c0-.044.013-.081.04-.112.027-.03.067-.045.12-.045.053 0 .093.015.12.045a.163.163 0 01.041.112c0 .044-.014.08-.041.109-.027.03-.067.044-.12.044-.053 0-.093-.014-.12-.044a.155.155 0 01-.04-.109zm1.096.036v.384h.296v.21h-.296v.982c0 .064.013.112.04.144.026.031.07.047.134.047a.642.642 0 00.13-.018v.22a.766.766 0 01-.209.029c-.121 0-.212-.036-.274-.11a.471.471 0 01-.092-.312v-.982h-.289v-.21h.289v-.384h.27zm1.132 1.572l.37-1.188h.29l-.638 1.83c-.099.263-.255.395-.47.395l-.051-.004-.101-.019v-.22l.073.006a.358.358 0 00.214-.056.4.4 0 00.127-.203l.06-.162-.565-1.567h.296l.395 1.188z" fill="#fff" fill-opacity=".5"/>
    <path d="M54 143h15v7H54v-7z" fill="#C4C4C4"/>
    <path d="M56 151h13v7H56v-7z" fill="#C4C4C4"/>
    <path d="M58 159h11v7H58v-7z" fill="#C4C4C4"/>
    <path fill="#6A6A6A" fill-opacity=".33" d="M70 39h68v97H70z"/>
    <path d="M81.773 119h-.565l-2.147-3.287V119h-.566v-4.266h.566l2.153 3.302v-3.302h.56V119zm2.871 0a1.137 1.137 0 01-.076-.334 1.209 1.209 0 01-.902.393c-.313 0-.57-.088-.77-.264a.864.864 0 01-.3-.674c0-.33.126-.586.376-.767.252-.184.605-.276 1.06-.276h.528v-.249a.604.604 0 00-.17-.451c-.114-.113-.28-.17-.501-.17a.795.795 0 00-.487.146c-.13.098-.196.216-.196.355h-.545c0-.158.056-.311.167-.457.113-.148.266-.266.457-.352.194-.086.405-.129.636-.129.365 0 .651.092.858.276.207.182.315.432.323.753v1.459c0 .291.037.522.11.694V119h-.568zm-.899-.413c.17 0 .331-.044.483-.132a.797.797 0 00.332-.343v-.65h-.425c-.664 0-.996.194-.996.583 0 .17.056.303.17.398a.652.652 0 00.436.144zm2.716-2.757l.015.352c.232-.274.546-.411.94-.411.443 0 .745.17.905.51.106-.152.243-.275.41-.369.17-.094.37-.141.601-.141.695 0 1.049.369 1.06 1.105V119h-.541v-2.092c0-.226-.052-.395-.156-.507-.103-.113-.277-.17-.521-.17a.716.716 0 00-.501.182.724.724 0 00-.232.483V119h-.544v-2.077c0-.461-.226-.692-.677-.692-.356 0-.599.152-.73.455V119h-.542v-3.17h.513zm6.067 3.229c-.43 0-.779-.141-1.049-.422-.269-.283-.404-.661-.404-1.134v-.1c0-.314.06-.594.179-.841a1.41 1.41 0 01.504-.58c.217-.14.451-.211.703-.211.412 0 .732.136.96.408.23.271.344.66.344 1.166v.225h-2.148c.008.313.099.566.273.759a.866.866 0 00.668.287.945.945 0 00.486-.117 1.22 1.22 0 00.349-.311l.33.258c-.265.408-.663.613-1.195.613zm-.067-2.842a.721.721 0 00-.55.24c-.15.158-.241.381-.276.668h1.588v-.041c-.016-.275-.09-.488-.223-.639a.68.68 0 00-.54-.228zm4.233-1.483l1.395 3.481 1.394-3.481h.73V119h-.563v-1.661l.053-1.793-1.4 3.454h-.43l-1.398-3.445.055 1.784V119h-.562v-4.266h.726zm4.284 2.652c0-.311.06-.59.181-.838.123-.248.293-.44.51-.574.219-.135.468-.203.747-.203.432 0 .78.15 1.046.449.267.299.401.696.401 1.192v.038c0 .309-.059.586-.178.832a1.35 1.35 0 01-.507.572 1.404 1.404 0 01-.756.205c-.43 0-.778-.15-1.046-.449-.266-.298-.398-.694-.398-1.186v-.038zm.544.064c0 .352.082.634.244.847a.785.785 0 00.656.319.779.779 0 00.656-.322c.162-.217.243-.52.243-.908 0-.348-.083-.629-.249-.844a.781.781 0 00-.656-.325.776.776 0 00-.647.319c-.165.213-.247.518-.247.914zm2.889-.061c0-.487.115-.877.346-1.172.23-.297.532-.446.905-.446.371 0 .665.127.882.381V114.5h.542v4.5h-.498l-.026-.34c-.217.266-.519.399-.906.399-.367 0-.667-.151-.899-.452-.231-.3-.346-.693-.346-1.177v-.041zm.542.061c0 .36.074.641.223.844a.72.72 0 00.615.305.791.791 0 00.753-.463v-1.456a.797.797 0 00-.747-.449.723.723 0 00-.621.308c-.149.205-.223.509-.223.911zm4.292 1.609c-.43 0-.779-.141-1.049-.422-.269-.283-.404-.661-.404-1.134v-.1c0-.314.06-.594.179-.841.121-.248.289-.441.504-.58a1.27 1.27 0 01.703-.211c.412 0 .732.136.961.408.228.271.342.66.342 1.166v.225h-2.147c.008.313.099.566.272.759a.867.867 0 00.668.287.947.947 0 00.487-.117c.133-.078.249-.182.348-.311l.331.258c-.265.408-.664.613-1.195.613zm-.067-2.842a.72.72 0 00-.551.24c-.148.158-.24.381-.275.668h1.587v-.041c-.015-.275-.089-.488-.222-.639a.68.68 0 00-.539-.228zM111.7 119h-.542v-4.5h.542v4.5z" fill="#fff"/>
    <path d="M79.816 124.323c-.026.226-.11.4-.25.523-.14.122-.326.183-.558.183a.753.753 0 01-.607-.271c-.151-.18-.227-.422-.227-.725v-.205c0-.198.035-.372.106-.523a.802.802 0 01.302-.346.835.835 0 01.45-.121c.227 0 .409.063.546.19.136.126.216.301.238.525h-.282c-.025-.17-.078-.293-.16-.369a.476.476 0 00-.341-.115c-.18 0-.321.067-.424.2-.101.132-.152.321-.152.566v.207c0 .231.048.416.145.552a.468.468 0 00.406.205c.156 0 .276-.035.359-.105.084-.071.14-.195.167-.371h.282zm.271-.13c0-.155.03-.295.091-.419a.687.687 0 01.255-.287.692.692 0 01.374-.101c.215 0 .39.074.523.224.133.149.2.348.2.596v.019c0 .154-.03.293-.09.416a.672.672 0 01-.63.388.667.667 0 01-.523-.224c-.133-.149-.2-.347-.2-.593v-.019zm.273.032c0 .176.04.317.121.423.083.107.192.16.329.16a.39.39 0 00.328-.161c.08-.108.121-.26.121-.454a.67.67 0 00-.124-.422.392.392 0 00-.328-.163.39.39 0 00-.324.16c-.082.107-.123.259-.123.457zm2.489.618c-.106.124-.26.186-.465.186-.169 0-.298-.049-.386-.146-.088-.099-.133-.244-.134-.437v-1.031h.271v1.024c0 .24.098.36.293.36.207 0 .345-.077.413-.231v-1.153h.271V125h-.257l-.006-.157zm.933-1.428l.008.199a.578.578 0 01.475-.228c.335 0 .504.189.507.567V125h-.271v-1.049c-.001-.114-.027-.199-.08-.253-.05-.055-.13-.082-.238-.082a.39.39 0 00-.231.07.474.474 0 00-.156.185V125h-.27v-1.585h.256zm1.766-.384v.384h.296v.21h-.296v.982c0 .064.013.112.04.144.026.031.071.047.135.047a.642.642 0 00.129-.018v.22a.767.767 0 01-.208.029c-.122 0-.213-.036-.274-.11a.471.471 0 01-.093-.312v-.982h-.288v-.21h.288v-.384h.271zm1.38.627a.795.795 0 00-.133-.01c-.178 0-.298.076-.362.227V125h-.27v-1.585h.263l.004.183a.423.423 0 01.378-.212c.053 0 .093.007.12.02v.252zm.796.945l.369-1.188h.29l-.637 1.83c-.099.263-.256.395-.47.395l-.052-.004-.101-.019v-.22l.073.006a.358.358 0 00.214-.056.4.4 0 00.128-.203l.06-.162-.566-1.567h.296l.396 1.188zm1.7.58h-.233l.891-2.316h.232l-.89 2.316zm3.538-.86c-.026.226-.11.4-.25.523-.14.122-.326.183-.559.183a.753.753 0 01-.606-.271c-.151-.18-.227-.422-.227-.725v-.205c0-.198.035-.372.105-.523a.801.801 0 01.302-.346.834.834 0 01.451-.121c.227 0 .408.063.545.19.137.126.216.301.239.525h-.283c-.024-.17-.077-.293-.16-.369a.476.476 0 00-.34-.115c-.18 0-.322.067-.424.2-.102.132-.152.321-.152.566v.207c0 .231.048.416.145.552a.468.468 0 00.405.205c.157 0 .276-.035.36-.105.083-.071.139-.195.166-.371h.283zm.637.677h-.27v-1.585h.27V125zm-.293-2.005c0-.044.013-.081.04-.112.027-.03.067-.045.12-.045.053 0 .093.015.12.045a.163.163 0 01.041.112c0 .044-.014.08-.041.109-.027.03-.067.044-.12.044-.053 0-.093-.014-.12-.044a.155.155 0 01-.04-.109zm1.096.036v.384h.296v.21h-.296v.982c0 .064.013.112.04.144.026.031.07.047.134.047a.642.642 0 00.13-.018v.22a.766.766 0 01-.209.029c-.121 0-.212-.036-.274-.11a.471.471 0 01-.092-.312v-.982h-.289v-.21h.289v-.384h.27zm1.132 1.572l.37-1.188h.29l-.638 1.83c-.099.263-.255.395-.47.395l-.051-.004-.101-.019v-.22l.073.006a.358.358 0 00.214-.056.4.4 0 00.127-.203l.06-.162-.565-1.567h.296l.395 1.188z" fill="#fff" fill-opacity=".5"/>
    <path d="M123 45h15v7h-15v-7z" fill="#C4C4C4"/>
    <path d="M125 53h13v7h-13v-7z" fill="#C4C4C4"/>
    <path d="M127 61h11v7h-11v-7z" fill="#C4C4C4"/>
    <path fill="#6A6A6A" fill-opacity=".33" d="M70 137h68v97H70z"/>
    <path d="M81.773 217h-.565l-2.147-3.287V217h-.566v-4.266h.566l2.153 3.302v-3.302h.56V217zm2.871 0a1.137 1.137 0 01-.076-.334 1.209 1.209 0 01-.902.393c-.313 0-.57-.088-.77-.264a.864.864 0 01-.3-.674c0-.33.126-.586.376-.767.252-.184.605-.276 1.06-.276h.528v-.249a.604.604 0 00-.17-.451c-.114-.113-.28-.17-.501-.17a.795.795 0 00-.487.146c-.13.098-.196.216-.196.355h-.545c0-.158.056-.311.167-.457.113-.148.266-.266.457-.352.194-.086.405-.129.636-.129.365 0 .651.092.858.276.207.182.315.432.323.753v1.459c0 .291.037.522.11.694V217h-.568zm-.899-.413c.17 0 .331-.044.483-.132a.797.797 0 00.332-.343v-.65h-.425c-.664 0-.996.194-.996.583 0 .17.056.303.17.398a.652.652 0 00.436.144zm2.716-2.757l.015.352c.232-.274.546-.411.94-.411.443 0 .745.17.905.51.106-.152.243-.275.41-.369.17-.094.37-.141.601-.141.695 0 1.049.369 1.06 1.105V217h-.541v-2.092c0-.226-.052-.395-.156-.507-.103-.113-.277-.17-.521-.17a.716.716 0 00-.501.182.724.724 0 00-.232.483V217h-.544v-2.077c0-.461-.226-.692-.677-.692-.356 0-.599.152-.73.455V217h-.542v-3.17h.513zm6.067 3.229c-.43 0-.779-.141-1.049-.422-.269-.283-.404-.661-.404-1.134v-.1c0-.314.06-.594.179-.841a1.41 1.41 0 01.504-.58c.217-.14.451-.211.703-.211.412 0 .732.136.96.408.23.271.344.66.344 1.166v.225h-2.148c.008.313.099.566.273.759a.866.866 0 00.668.287.945.945 0 00.486-.117 1.22 1.22 0 00.349-.311l.33.258c-.265.408-.663.613-1.195.613zm-.067-2.842a.721.721 0 00-.55.24c-.15.158-.241.381-.276.668h1.588v-.041c-.016-.275-.09-.488-.223-.639a.68.68 0 00-.54-.228zm4.233-1.483l1.395 3.481 1.394-3.481h.73V217h-.563v-1.661l.053-1.793-1.4 3.454h-.43l-1.398-3.445.055 1.784V217h-.562v-4.266h.726zm4.284 2.652c0-.311.06-.59.181-.838.123-.248.293-.44.51-.574.219-.135.468-.203.747-.203.432 0 .78.15 1.046.449.267.299.401.696.401 1.192v.038c0 .309-.059.586-.178.832a1.35 1.35 0 01-.507.572 1.404 1.404 0 01-.756.205c-.43 0-.778-.15-1.046-.449-.266-.298-.398-.694-.398-1.186v-.038zm.544.064c0 .352.082.634.244.847a.785.785 0 00.656.319.779.779 0 00.656-.322c.162-.217.243-.52.243-.908 0-.348-.083-.629-.249-.844a.781.781 0 00-.656-.325.776.776 0 00-.647.319c-.165.213-.247.518-.247.914zm2.889-.061c0-.487.115-.877.346-1.172.23-.297.532-.446.905-.446.371 0 .665.127.882.381V212.5h.542v4.5h-.498l-.026-.34c-.217.266-.519.399-.906.399-.367 0-.667-.151-.899-.452-.231-.3-.346-.693-.346-1.177v-.041zm.542.061c0 .36.074.641.223.844a.72.72 0 00.615.305.791.791 0 00.753-.463v-1.456a.797.797 0 00-.747-.449.723.723 0 00-.621.308c-.149.205-.223.509-.223.911zm4.292 1.609c-.43 0-.779-.141-1.049-.422-.269-.283-.404-.661-.404-1.134v-.1c0-.314.06-.594.179-.841.121-.248.289-.441.504-.58a1.27 1.27 0 01.703-.211c.412 0 .732.136.961.408.228.271.342.66.342 1.166v.225h-2.147c.008.313.099.566.272.759a.867.867 0 00.668.287.947.947 0 00.487-.117c.133-.078.249-.182.348-.311l.331.258c-.265.408-.664.613-1.195.613zm-.067-2.842a.72.72 0 00-.551.24c-.148.158-.24.381-.275.668h1.587v-.041c-.015-.275-.089-.488-.222-.639a.68.68 0 00-.539-.228zM111.7 217h-.542v-4.5h.542v4.5z" fill="#fff"/>
    <path d="M79.816 222.323c-.026.226-.11.4-.25.523-.14.122-.326.183-.558.183a.753.753 0 01-.607-.271c-.151-.18-.227-.422-.227-.725v-.205c0-.198.035-.372.106-.523a.802.802 0 01.302-.346.835.835 0 01.45-.121c.227 0 .409.063.546.19.136.126.216.301.238.525h-.282c-.025-.17-.078-.293-.16-.369a.476.476 0 00-.341-.115c-.18 0-.321.067-.424.2-.101.132-.152.321-.152.566v.207c0 .231.048.416.145.552a.468.468 0 00.406.205c.156 0 .276-.035.359-.105.084-.071.14-.195.167-.371h.282zm.271-.13c0-.155.03-.295.091-.419a.687.687 0 01.255-.287.692.692 0 01.374-.101c.215 0 .39.074.523.224.133.149.2.348.2.596v.019c0 .154-.03.293-.09.416a.672.672 0 01-.63.388.667.667 0 01-.523-.224c-.133-.149-.2-.347-.2-.593v-.019zm.273.032c0 .176.04.317.121.423.083.107.192.16.329.16a.39.39 0 00.328-.161c.08-.108.121-.26.121-.454a.67.67 0 00-.124-.422.392.392 0 00-.328-.163.39.39 0 00-.324.16c-.082.107-.123.259-.123.457zm2.489.618c-.106.124-.26.186-.465.186-.169 0-.298-.049-.386-.146-.088-.099-.133-.244-.134-.437v-1.031h.271v1.024c0 .24.098.36.293.36.207 0 .345-.077.413-.231v-1.153h.271V223h-.257l-.006-.157zm.933-1.428l.008.199a.578.578 0 01.475-.228c.335 0 .504.189.507.567V223h-.271v-1.049c-.001-.114-.027-.199-.08-.253-.05-.055-.13-.082-.238-.082a.39.39 0 00-.231.07.474.474 0 00-.156.185V223h-.27v-1.585h.256zm1.766-.384v.384h.296v.21h-.296v.982c0 .064.013.112.04.144.026.031.071.047.135.047a.642.642 0 00.129-.018v.22a.767.767 0 01-.208.029c-.122 0-.213-.036-.274-.11a.471.471 0 01-.093-.312v-.982h-.288v-.21h.288v-.384h.271zm1.38.627a.795.795 0 00-.133-.01c-.178 0-.298.076-.362.227V223h-.27v-1.585h.263l.004.183a.423.423 0 01.378-.212c.053 0 .093.007.12.02v.252zm.796.945l.369-1.188h.29l-.637 1.83c-.099.263-.256.395-.47.395l-.052-.004-.101-.019v-.22l.073.006a.358.358 0 00.214-.056.4.4 0 00.128-.203l.06-.162-.566-1.567h.296l.396 1.188zm1.7.58h-.233l.891-2.316h.232l-.89 2.316zm3.538-.86c-.026.226-.11.4-.25.523-.14.122-.326.183-.559.183a.753.753 0 01-.606-.271c-.151-.18-.227-.422-.227-.725v-.205c0-.198.035-.372.105-.523a.801.801 0 01.302-.346.834.834 0 01.451-.121c.227 0 .408.063.545.19.137.126.216.301.239.525h-.283c-.024-.17-.077-.293-.16-.369a.476.476 0 00-.34-.115c-.18 0-.322.067-.424.2-.102.132-.152.321-.152.566v.207c0 .231.048.416.145.552a.468.468 0 00.405.205c.157 0 .276-.035.36-.105.083-.071.139-.195.166-.371h.283zm.637.677h-.27v-1.585h.27V223zm-.293-2.005c0-.044.013-.081.04-.112.027-.03.067-.045.12-.045.053 0 .093.015.12.045a.163.163 0 01.041.112c0 .044-.014.08-.041.109-.027.03-.067.044-.12.044-.053 0-.093-.014-.12-.044a.155.155 0 01-.04-.109zm1.096.036v.384h.296v.21h-.296v.982c0 .064.013.112.04.144.026.031.07.047.134.047a.642.642 0 00.13-.018v.22a.766.766 0 01-.209.029c-.121 0-.212-.036-.274-.11a.471.471 0 01-.092-.312v-.982h-.289v-.21h.289v-.384h.27zm1.132 1.572l.37-1.188h.29l-.638 1.83c-.099.263-.255.395-.47.395l-.051-.004-.101-.019v-.22l.073.006a.358.358 0 00.214-.056.4.4 0 00.127-.203l.06-.162-.565-1.567h.296l.395 1.188z" fill="#fff" fill-opacity=".5"/>
    <path d="M123 143h15v7h-15v-7z" fill="#C4C4C4"/>
    <path d="M125 151h13v7h-13v-7z" fill="#C4C4C4"/>
    <path d="M127 159h11v7h-11v-7z" fill="#C4C4C4"/>
    <defs>
        <linearGradient id="paint0_linear" x1="56.542" y1="23.995" x2="70.314" y2="16.818" gradientUnits="userSpaceOnUse">
            <stop stop-color="#F83479"/>
            <stop offset="1" stop-color="#FF819C"/>
        </linearGradient>
        <linearGradient id="paint1_linear" x1="47.308" y1="16.572" x2="51.623" y2="22.036" gradientUnits="userSpaceOnUse">
            <stop stop-color="#FF819C"/>
            <stop offset=".259" stop-color="#FF7E9A"/>
            <stop offset=".476" stop-color="#FE7396"/>
            <stop offset=".676" stop-color="#FC628E"/>
            <stop offset=".867" stop-color="#FA4A83"/>
            <stop offset="1" stop-color="#F83479"/>
        </linearGradient>
        <linearGradient id="paint2_linear" x1="49.668" y1="20.89" x2="40.458" y2="-.876" gradientUnits="userSpaceOnUse">
            <stop stop-color="#fff" stop-opacity="0"/>
            <stop offset="1" stop-color="#fff"/>
        </linearGradient>
        <linearGradient id="paint3_linear" x1="49.608" y1="20.563" x2="51.937" y2="27.472" gradientUnits="userSpaceOnUse">
            <stop stop-color="#F82814" stop-opacity="0"/>
            <stop offset="1" stop-color="#C0272D"/>
        </linearGradient>
        <linearGradient id="paint4_linear" x1="49.383" y1="18.146" x2="43.687" y2="12.257" gradientUnits="userSpaceOnUse">
            <stop stop-color="#F82814" stop-opacity="0"/>
            <stop offset="1" stop-color="#C0272D"/>
        </linearGradient>
    </defs>
</svg>
