<svg width="24" height="24" fill="none" xmlns="http://www.w3.org/2000/svg">
    <g clip-path="url(#clip0)" fill="#F53A66">
        <path d="M2.703 2.704A9.187 9.187 0 0015.344 16.03l.702.702a1.452 1.452 0 000 2.053l4.79 4.79a1.451 1.451 0 002.053 0l.684-.684a1.452 1.452 0 000-2.053l-4.79-4.79a1.452 1.452 0 00-2.053 0l-.702-.701A9.187 9.187 0 002.703 2.704zm15.395 14.028l4.79 4.79a.484.484 0 010 .684l-.684.684a.484.484 0 01-.684 0l-4.79-4.79a.495.495 0 010-.684l.685-.684a.484.484 0 01.683 0zM15.02 3.388a8.225 8.225 0 11-11.633 0 8.235 8.235 0 0111.633 0z"/>
        <path d="M4.07 4.073l.684.684a6.298 6.298 0 018.896 0l.684-.684a7.265 7.265 0 00-10.264 0z"/>
    </g>
    <defs>
        <clipPath id="clip0">
            <path transform="rotate(-90 0 24)" fill="#fff" d="M0 24h24v24H0z"/>
        </clipPath>
    </defs>
</svg>
