<svg width="139" height="266" fill="none" xmlns="http://www.w3.org/2000/svg">
    <rect width="139" height="266" rx="5" fill="#000" fill-opacity=".46"/>
    <rect x=".5" y=".5" width="138" height="265" rx="4.5" stroke="#fff" stroke-opacity=".35"/>
    <path d="M57.597 19.03c0-.707.24-1.295.723-1.766.482-.475 1.099-.713 1.852-.713.753 0 1.37.238 1.852.713.482.47.723 1.06.723 1.765 0 .724-.24 1.329-.723 1.813-.482.484-1.1.727-1.852.727-.753 0-1.37-.243-1.852-.727s-.723-1.088-.723-1.813zm1.246 0c0 .416.124.762.372 1.038.252.276.571.414.957.414s.702-.138.95-.414c.252-.276.379-.622.379-1.039 0-.398-.127-.729-.379-.991a1.239 1.239 0 00-.95-.4 1.26 1.26 0 00-.957.4c-.248.262-.372.593-.372.991zm4.67 2.457v-4.854h1.22l1.363 2.267c.055.095.117.213.185.353.07.136.124.25.166.34l.062.136h.013a8.33 8.33 0 01-.055-.829v-2.267h1.205v4.854H66.46l-1.37-2.26a7.127 7.127 0 01-.186-.347 14.03 14.03 0 01-.165-.346l-.062-.136h-.014c.037.348.056.625.056.828v2.261h-1.205zm5.191 0v-4.854h3.085v1.018h-1.88v.883h1.501v1.018h-1.5v.917h1.976v1.018h-3.181z" fill="url(#paint0_linear)"/>
    <path d="M73.291 21.487v-4.753h.276l2.747 3.728.393.597h.014a6.466 6.466 0 01-.035-.597v-3.728h.296v4.753h-.275l-2.748-3.727-.392-.598h-.014c.023.24.035.44.035.598v3.727h-.296zm5.165 0v-4.753h.296v4.753h-.296zm1.444-2.376c0-.688.23-1.27.689-1.745.464-.476 1.035-.713 1.715-.713.67 0 1.23.179 1.68.536l-.18.224a2.04 2.04 0 00-.681-.346 2.613 2.613 0 00-.82-.136c-.6 0-1.101.209-1.5.625-.395.416-.593.935-.593 1.555 0 .62.193 1.138.579 1.555.39.416.881.624 1.473.624.312 0 .613-.07.902-.21.294-.14.544-.33.75-.57v-.917h-.86v-.272h1.157v2.166h-.296v-.414l.007-.204h-.014a2.144 2.144 0 01-.716.51 2.29 2.29 0 01-.93.19c-.67 0-1.232-.236-1.687-.706-.45-.476-.675-1.06-.675-1.752zm5.515 2.376v-4.753h.296v2.234h3.057v-2.234h.296v4.753h-.296V19.24h-3.057v2.247h-.296zm6.308 0v-4.481h-1.797v-.272h3.89v.272H92.02v4.481h-.296z" fill="#fff"/>
    <path d="M48.344 24.367a1.5 1.5 0 01-.66-.154c-.617-.304-1.82-.956-2.956-1.907-1.477-1.237-2.353-2.565-2.602-3.947a3.723 3.723 0 01.759-3.007 3.388 3.388 0 012.675-1.28 3.514 3.514 0 012.784 1.354 3.526 3.526 0 012.959-1.35c.985.048 1.873.501 2.5 1.277.677.837.953 1.933.76 3.006-.25 1.382-1.126 2.71-2.603 3.947-1.136.95-2.34 1.603-2.956 1.907-.204.1-.432.154-.66.154z" fill="url(#paint1_linear)"/>
    <path d="M48.344 23.608c-.163 0-.326-.037-.472-.106-.572-.272-1.687-.855-2.737-1.704-1.34-1.083-2.132-2.235-2.355-3.424-.167-.891.07-1.8.652-2.493a2.911 2.911 0 012.27-1.05 3.05 3.05 0 012.37 1.113l.273.337.272-.337a3.05 3.05 0 012.52-1.11c.835.04 1.588.411 2.12 1.047.582.693.819 1.602.652 2.493-.222 1.189-1.014 2.34-2.354 3.424-1.05.849-2.166 1.432-2.737 1.704-.147.07-.31.106-.474.106z" fill="url(#paint2_linear)"/>
    <path d="M53.803 15.353a3.495 3.495 0 00-.806-.732 3.73 3.73 0 01.583 2.77c-.25 1.38-1.125 2.709-2.602 3.946-1.136.95-2.34 1.603-2.956 1.907a1.5 1.5 0 01-1.32 0c-.617-.304-1.82-.956-2.956-1.907-.05-.041-.097-.082-.144-.123.325.37.7.735 1.126 1.092 1.136.95 2.34 1.603 2.956 1.907a1.5 1.5 0 001.32 0c.617-.304 1.82-.956 2.956-1.907 1.477-1.237 2.353-2.565 2.602-3.947a3.722 3.722 0 00-.759-3.006z" fill="url(#paint3_linear)"/>
    <path d="M51.303 14.077a3.514 3.514 0 00-2.959 1.35v8.94a1.5 1.5 0 00.66-.154c.617-.304 1.82-.957 2.956-1.907 1.478-1.238 2.353-2.565 2.603-3.947a3.722 3.722 0 00-.76-3.006 3.389 3.389 0 00-2.5-1.276z" fill="url(#paint4_linear)"/>
    <g clip-path="url(#clip0)">
        <path fill="#6A6A6A" fill-opacity=".33" d="M1 39h137v137H1z"/>
        <path d="M20.891 149.515h-.565l-2.148-3.287v3.287h-.565v-4.265h.565l2.153 3.302v-3.302h.56v4.265zm2.871 0a1.13 1.13 0 01-.076-.334 1.209 1.209 0 01-.902.393c-.313 0-.57-.088-.77-.264a.862.862 0 01-.3-.673c0-.331.125-.586.375-.768.252-.184.606-.275 1.06-.275h.528v-.249c0-.19-.056-.34-.17-.452-.113-.113-.28-.17-.5-.17a.788.788 0 00-.487.147c-.13.098-.196.216-.196.354h-.545c0-.158.055-.31.167-.457.113-.148.265-.265.457-.351.193-.086.405-.129.636-.129.365 0 .65.092.858.275.207.182.314.433.322.753v1.459c0 .291.037.523.112.695v.046h-.569zm-.9-.413a.96.96 0 00.484-.131.802.802 0 00.331-.343v-.651h-.425c-.664 0-.996.195-.996.583 0 .17.057.303.17.399a.651.651 0 00.437.143zm2.717-2.756l.014.351c.233-.273.546-.41.94-.41.444 0 .746.17.906.51a1.19 1.19 0 01.41-.369c.17-.094.37-.141.6-.141.696 0 1.05.368 1.061 1.104v2.124h-.542v-2.091c0-.227-.052-.396-.155-.507-.104-.113-.277-.17-.521-.17a.711.711 0 00-.502.182.724.724 0 00-.23.483v2.103h-.546v-2.077c0-.461-.225-.691-.677-.691-.355 0-.598.151-.73.454v2.314h-.541v-3.169h.513zm6.067 3.228c-.43 0-.78-.141-1.049-.422-.27-.283-.404-.661-.404-1.134v-.099c0-.315.06-.595.179-.841.12-.248.289-.441.503-.58.217-.141.452-.211.704-.211.412 0 .732.136.96.407.23.272.343.66.343 1.166v.226h-2.147c.008.312.099.565.272.759a.869.869 0 00.668.287.935.935 0 00.487-.118c.132-.078.249-.181.348-.31l.331.258c-.265.408-.664.612-1.195.612zm-.067-2.842a.719.719 0 00-.551.241c-.149.158-.24.38-.276.667h1.588v-.041c-.015-.275-.09-.488-.222-.638a.677.677 0 00-.54-.229zm4.233-1.482l1.395 3.48 1.394-3.48h.73v4.265h-.563v-1.661l.053-1.793-1.4 3.454h-.431l-1.398-3.445.056 1.784v1.661h-.563v-4.265h.727zm4.283 2.651c0-.31.06-.59.182-.838a1.38 1.38 0 01.51-.574c.218-.135.467-.202.747-.202.431 0 .78.149 1.046.448.267.299.401.696.401 1.193v.038c0 .308-.06.586-.179.832a1.336 1.336 0 01-.507.571c-.218.137-.47.205-.755.205-.43 0-.779-.149-1.046-.448-.266-.299-.399-.695-.399-1.187v-.038zm.545.065c0 .351.081.633.243.846.164.213.383.32.657.32a.78.78 0 00.656-.323c.162-.216.243-.519.243-.908 0-.347-.083-.629-.25-.844a.784.784 0 00-.655-.325.779.779 0 00-.648.32c-.164.212-.246.517-.246.914zm2.889-.062c0-.486.115-.877.345-1.172.231-.297.533-.445.906-.445.37 0 .665.127.882.381v-1.653h.542v4.5h-.498l-.027-.339c-.217.265-.518.398-.905.398-.367 0-.667-.15-.9-.451-.23-.301-.345-.693-.345-1.178v-.041zm.542.062c0 .359.074.64.223.843a.718.718 0 00.615.305.79.79 0 00.753-.463v-1.456a.796.796 0 00-.747-.448.721.721 0 00-.621.308c-.149.205-.223.508-.223.911zm4.292 1.608c-.43 0-.78-.141-1.049-.422-.27-.283-.404-.661-.404-1.134v-.099c0-.315.06-.595.178-.841.121-.248.29-.441.504-.58.217-.141.452-.211.703-.211.413 0 .733.136.961.407.229.272.343.66.343 1.166v.226h-2.147c.008.312.098.565.272.759a.869.869 0 00.668.287.935.935 0 00.486-.118c.133-.078.25-.181.35-.31l.33.258c-.266.408-.664.612-1.195.612zm-.068-2.842a.719.719 0 00-.55.241c-.149.158-.24.38-.276.667h1.588v-.041c-.016-.275-.09-.488-.223-.638a.677.677 0 00-.539-.229zm2.523 2.783h-.542v-4.5h.542v4.5z" fill="#fff"/>
        <path d="M18.934 158.55c-.026.226-.11.4-.25.523-.14.122-.326.183-.559.183a.753.753 0 01-.606-.271c-.151-.181-.227-.422-.227-.725v-.205c0-.198.035-.373.105-.523a.796.796 0 01.302-.346.835.835 0 01.451-.121c.227 0 .409.063.545.19.137.126.217.301.24.525h-.284c-.024-.17-.077-.293-.16-.37a.48.48 0 00-.34-.114c-.18 0-.321.067-.424.199-.102.133-.152.322-.152.567v.207c0 .231.048.415.145.552a.468.468 0 00.405.205c.157 0 .276-.035.36-.105.083-.072.139-.195.166-.371h.283zm.271-.13c0-.156.03-.295.09-.419a.687.687 0 01.256-.287.692.692 0 01.373-.101c.216 0 .39.074.523.224.134.149.2.348.2.596v.019c0 .154-.029.293-.088.416a.673.673 0 01-.632.388.67.67 0 01-.523-.224c-.133-.149-.199-.347-.199-.593v-.019zm.273.032c0 .176.04.317.121.423.082.107.192.16.328.16a.39.39 0 00.328-.161c.081-.109.122-.26.122-.454a.67.67 0 00-.125-.422.39.39 0 00-.328-.163.388.388 0 00-.323.16c-.082.106-.123.259-.123.457zm2.488.618c-.105.124-.26.186-.464.186-.169 0-.298-.049-.387-.146-.088-.099-.132-.245-.133-.437v-1.031h.27v1.024c0 .24.099.36.294.36.207 0 .345-.077.413-.231v-1.153h.271v1.585h-.258l-.006-.157zm.933-1.428l.01.199a.578.578 0 01.474-.228c.335 0 .504.189.507.566v1.048h-.271v-1.049c-.001-.114-.028-.199-.08-.253-.05-.055-.13-.082-.238-.082a.39.39 0 00-.232.07.478.478 0 00-.155.184v1.13h-.27v-1.585h.255zm1.767-.384v.384h.296v.209h-.296v.983c0 .064.013.112.04.144.026.031.07.047.134.047a.64.64 0 00.13-.018v.22a.807.807 0 01-.209.029c-.12 0-.212-.037-.274-.11a.471.471 0 01-.092-.312v-.983h-.289v-.209h.289v-.384h.271zm1.38.627a.796.796 0 00-.133-.01c-.178 0-.299.075-.362.227v1.125h-.271v-1.585h.264l.004.183a.42.42 0 01.378-.212c.053 0 .093.006.12.02v.252zm.795.945l.37-1.188h.29l-.638 1.829c-.098.264-.255.396-.47.396l-.051-.004-.101-.019v-.22l.073.006a.357.357 0 00.214-.056.4.4 0 00.127-.204l.06-.161-.565-1.567h.296l.395 1.188zm1.701.58h-.233l.89-2.316h.232l-.889 2.316zm3.538-.86c-.027.226-.11.4-.25.523-.14.122-.327.183-.559.183a.752.752 0 01-.606-.271c-.152-.181-.227-.422-.227-.725v-.205c0-.198.035-.373.105-.523a.796.796 0 01.302-.346.835.835 0 01.45-.121c.227 0 .41.063.546.19.136.126.216.301.239.525h-.283c-.024-.17-.078-.293-.16-.37a.48.48 0 00-.341-.114c-.18 0-.32.067-.423.199-.102.133-.153.322-.153.567v.207c0 .231.049.415.145.552a.468.468 0 00.406.205c.156 0 .276-.035.359-.105.084-.072.14-.195.167-.371h.283zm.637.677h-.271v-1.585h.27v1.585zm-.293-2.006c0-.044.013-.081.04-.111.027-.03.067-.045.12-.045.052 0 .092.015.12.045.027.03.04.067.04.111a.154.154 0 01-.04.11c-.028.03-.068.044-.12.044-.053 0-.093-.014-.12-.044a.158.158 0 01-.04-.11zm1.096.037v.384h.295v.209h-.295v.983c0 .064.013.112.04.144.025.031.07.047.134.047a.642.642 0 00.129-.018v.22a.808.808 0 01-.208.029c-.121 0-.213-.037-.274-.11a.471.471 0 01-.093-.312v-.983h-.288v-.209h.288v-.384h.272zm1.132 1.572l.369-1.188h.29l-.637 1.829c-.099.264-.255.396-.47.396l-.052-.004-.1-.019v-.22l.072.006a.358.358 0 00.214-.056.4.4 0 00.128-.204l.06-.161-.566-1.567h.296l.396 1.188z" fill="#fff" fill-opacity=".5"/>
        <path d="M107.779 47.474H138v9.887h-30.221v-9.887z" fill="#C4C4C4"/>
        <path d="M111.809 58.773H138v9.887h-26.191v-9.887z" fill="#C4C4C4"/>
        <path d="M115.838 70.072H138v9.887h-22.162v-9.887z" fill="#C4C4C4"/>
        <path fill="#6A6A6A" fill-opacity=".33" d="M1 177h137v137H1z"/>
        <path d="M107.779 185.474H138v9.887h-30.221v-9.887z" fill="#C4C4C4"/>
        <path d="M111.809 196.773H138v9.887h-26.191v-9.887z" fill="#C4C4C4"/>
        <path d="M115.838 208.072H138v9.887h-22.162v-9.887z" fill="#C4C4C4"/>
    </g>
    <defs>
        <linearGradient id="paint0_linear" x1="56.542" y1="23.995" x2="70.314" y2="16.818" gradientUnits="userSpaceOnUse">
            <stop stop-color="#F83479"/>
            <stop offset="1" stop-color="#FF819C"/>
        </linearGradient>
        <linearGradient id="paint1_linear" x1="47.308" y1="16.572" x2="51.623" y2="22.036" gradientUnits="userSpaceOnUse">
            <stop stop-color="#FF819C"/>
            <stop offset=".259" stop-color="#FF7E9A"/>
            <stop offset=".476" stop-color="#FE7396"/>
            <stop offset=".676" stop-color="#FC628E"/>
            <stop offset=".867" stop-color="#FA4A83"/>
            <stop offset="1" stop-color="#F83479"/>
        </linearGradient>
        <linearGradient id="paint2_linear" x1="49.668" y1="20.89" x2="40.458" y2="-.876" gradientUnits="userSpaceOnUse">
            <stop stop-color="#fff" stop-opacity="0"/>
            <stop offset="1" stop-color="#fff"/>
        </linearGradient>
        <linearGradient id="paint3_linear" x1="49.608" y1="20.563" x2="51.937" y2="27.472" gradientUnits="userSpaceOnUse">
            <stop stop-color="#F82814" stop-opacity="0"/>
            <stop offset="1" stop-color="#C0272D"/>
        </linearGradient>
        <linearGradient id="paint4_linear" x1="49.383" y1="18.146" x2="43.687" y2="12.257" gradientUnits="userSpaceOnUse">
            <stop stop-color="#F82814" stop-opacity="0"/>
            <stop offset="1" stop-color="#C0272D"/>
        </linearGradient>
        <clipPath id="clip0">
            <path d="M1 39h137v222a4 4 0 01-4 4H5a4 4 0 01-4-4V39z" fill="#fff"/>
        </clipPath>
    </defs>
</svg>
