<?xml version="1.0" encoding="utf-8"?><svg xmlns="http://www.w3.org/2000/svg" xmlns:xlink="http://www.w3.org/1999/xlink"><symbol fill-rule="evenodd" clip-rule="evenodd" viewBox="0 0 24 24" id="icon--check" xmlns="http://www.w3.org/2000/svg"><path d="M21 6.285L9.84 19.018 3 13l1.319-1.49 5.341 4.686L19.525 5 21 6.285z"/></symbol><symbol viewBox="0 0 512 512" id="icon--filter" xmlns="http://www.w3.org/2000/svg"><path d="M208 512c-2.582 0-5.184-.617-7.55-1.898-5.208-2.774-8.45-8.215-8.45-14.102V290.773c0-7.464-3.137-14.636-8.64-19.668L12.097 114.238C4.395 107.156 0 97.128 0 86.718V37.333C0 16.746 16.746 0 37.332 0h437.336C495.254 0 512 16.746 512 37.332v49.387c0 10.41-4.395 20.437-12.074 27.52L328.684 271.124c-5.547 5.012-8.684 12.184-8.684 19.648v129.793a37.25 37.25 0 01-16.617 31.059l-86.508 57.664C214.207 511.105 211.113 512 208 512zM37.332 32A5.336 5.336 0 0032 37.332v49.387c0 1.496.64 2.926 1.75 3.949l171.2 156.84c12.097 11.094 19.05 26.86 19.05 43.265V466.09l61.633-41.086a5.34 5.34 0 002.367-4.438V290.773c0-16.425 6.934-32.191 19.07-43.265L478.273 90.645A5.36 5.36 0 00480 86.719V37.332A5.336 5.336 0 00474.668 32zm0 0"/></symbol><symbol viewBox="0 0 477.871 477.871" id="icon--hide" xmlns="http://www.w3.org/2000/svg"><path d="M474.609 228.901a453.124 453.124 0 00-103.219-98.287l67.345-67.345c6.78-6.548 6.968-17.352.42-24.132-6.548-6.78-17.352-6.968-24.132-.42-.142.137-.282.277-.42.42l-73.574 73.506a220.702 220.702 0 00-102.093-27.307C109.229 85.336 7.529 223.03 3.262 228.9a17.068 17.068 0 000 20.07 453.124 453.124 0 00103.219 98.287l-67.345 67.345c-6.78 6.548-6.968 17.352-.42 24.132 6.548 6.78 17.352 6.968 24.132.42.142-.137.282-.277.42-.42l73.574-73.506a220.702 220.702 0 00102.093 27.307c129.707 0 231.407-137.694 235.674-143.565a17.063 17.063 0 000-20.069zm-343.313 93.593a424.95 424.95 0 01-92.484-83.558c25.122-30.43 106.598-119.467 200.124-119.467a180.655 180.655 0 0176.612 18.773L285.92 167.87c-39.2-26.025-92.076-15.345-118.101 23.855-18.958 28.555-18.958 65.691 0 94.246l-36.523 36.523zm153.72-105.489a50.36 50.36 0 015.12 21.931c0 28.277-22.923 51.2-51.2 51.2a50.36 50.36 0 01-21.931-5.12l68.011-68.011zm-92.16 43.861a50.36 50.36 0 01-5.12-21.931c0-28.277 22.923-51.2 51.2-51.2a50.36 50.36 0 0121.931 5.12l-68.011 68.011zm46.08 97.536a180.659 180.659 0 01-76.612-18.773l29.628-29.628c39.2 26.025 92.076 15.345 118.101-23.855 18.958-28.555 18.958-65.691 0-94.246l36.523-36.523a424.975 424.975 0 0192.484 83.558c-25.123 30.431-106.599 119.467-200.124 119.467z"/></symbol><symbol viewBox="0 0 512 512" id="icon--like" xmlns="http://www.w3.org/2000/svg"><path d="M512 304c0-12.821-5.099-24.768-13.888-33.579 9.963-10.901 15.04-25.515 13.653-40.725-2.496-27.115-26.923-48.363-55.637-48.363H324.352c6.528-19.819 16.981-56.149 16.981-85.333 0-46.272-39.317-85.333-64-85.333-22.144 0-37.995 12.48-38.656 12.992A10.672 10.672 0 00234.666 32v72.341L173.205 237.44l-2.539 1.301v-4.075c0-5.888-4.779-10.667-10.667-10.667H53.333C23.915 224 0 247.915 0 277.333V448c0 29.419 23.915 53.333 53.333 53.333h64c23.061 0 42.773-14.72 50.197-35.264C185.28 475.2 209.173 480 224 480h195.819c23.232 0 43.563-15.659 48.341-37.248 2.453-11.136 1.024-22.336-3.84-32.064 15.744-7.915 26.347-24.192 26.347-42.688 0-7.552-1.728-14.784-4.992-21.312C501.419 338.752 512 322.496 512 304zm-44.992 26.325a10.719 10.719 0 00-8.917 7.232 10.688 10.688 0 002.816 11.136c5.419 5.099 8.427 11.968 8.427 19.307 0 13.461-10.176 24.768-23.637 26.325a10.719 10.719 0 00-8.917 7.232 10.688 10.688 0 002.816 11.136c7.019 6.613 9.835 15.893 7.723 25.451-2.624 11.904-14.187 20.523-27.499 20.523H224c-17.323 0-46.379-8.128-56.448-18.219-3.051-3.029-7.659-3.925-11.627-2.304a10.667 10.667 0 00-6.592 9.856c0 17.643-14.357 32-32 32h-64c-17.643 0-32-14.357-32-32V277.333c0-17.643 14.357-32 32-32h96V256c0 3.691 1.92 7.125 5.077 9.088a10.902 10.902 0 0010.368.448l21.333-10.667a10.65 10.65 0 004.907-5.056l64-138.667c.64-1.408.981-2.944.981-4.48V37.781c4.438-2.453 12.14-5.781 21.334-5.781C289.024 32 320 61.056 320 96c0 37.547-20.437 91.669-20.629 92.203a10.739 10.739 0 001.173 9.856 10.728 10.728 0 008.789 4.608h146.795c17.792 0 32.896 12.736 34.389 28.992 1.131 12.16-4.715 23.723-15.189 30.187-3.264 2.005-5.205 5.632-5.056 9.493s2.368 7.317 5.781 9.088c9.024 4.587 14.613 13.632 14.613 23.573.001 13.461-10.175 24.768-23.658 26.325z"/><path d="M160 245.333c-5.888 0-10.667 4.779-10.667 10.667v192c0 5.888 4.779 10.667 10.667 10.667s10.667-4.779 10.667-10.667V256c0-5.888-4.779-10.667-10.667-10.667z"/></symbol><symbol viewBox="0 0 512 512" id="icon--share" xmlns="http://www.w3.org/2000/svg"><path d="M511.824 255.863L278.488 0v153.266h-27.105c-67.145 0-130.274 26.148-177.754 73.629C26.149 274.375 0 337.504 0 404.652V512l44.781-49.066c59.903-65.63 144.934-103.594 233.707-104.457V511.73zM30.004 434.867v-30.215c0-59.132 23.027-114.73 64.84-156.543s97.406-64.84 156.539-64.84h57.105V77.427l162.735 178.437-162.735 178.442V328.46H281.57c-94.703 0-185.773 38.652-251.566 106.406zm0 0"/></symbol></svg>