<svg width="24" height="24" viewBox="0 0 24 24" fill="none" xmlns="http://www.w3.org/2000/svg">
<g clip-path="url(#clip0)">
<path d="M2.7027 2.70448C-0.889928 6.28719 -0.898032 12.1039 2.68468 15.6966C6.14159 19.1631 11.7095 19.3098 15.3442 16.0301L16.0458 16.7317C15.4789 17.2985 15.4788 18.2176 16.0456 18.7845C16.0457 18.7846 16.0457 18.7846 16.0458 18.7847L20.8359 23.5748C21.4027 24.1417 22.3218 24.1418 22.8887 23.5749C22.8887 23.5749 22.8888 23.5748 22.8888 23.5748L23.573 22.8906C24.1396 22.3238 24.1396 21.4049 23.573 20.8381L18.7829 16.048C18.2161 15.4811 17.297 15.481 16.7301 16.0478C16.7301 16.0479 16.73 16.048 16.7299 16.048L16.0284 15.3465C19.4302 11.5821 19.1364 5.77279 15.3721 2.37092C11.736 -0.915011 6.16082 -0.768221 2.7027 2.70448ZM18.0983 16.7317L22.8884 21.5218C23.0772 21.7107 23.0772 22.017 22.8884 22.206L22.2037 22.8901C22.0148 23.0787 21.7089 23.0787 21.52 22.8901L16.7299 18.1C16.547 17.9087 16.547 17.6072 16.7299 17.4159L17.4146 16.7317C17.6035 16.5431 17.9094 16.5431 18.0983 16.7317ZM15.0195 3.38815C18.2317 6.60042 18.2316 11.8085 15.0194 15.0206C11.8071 18.2328 6.59901 18.2327 3.38686 15.0205C0.17478 11.8083 0.174779 6.60036 3.38686 3.38815C6.60131 0.181146 11.8051 0.181146 15.0195 3.38815Z" fill="#F53A66"/>
<path d="M4.07031 4.07268L4.75447 4.75684C7.21266 2.30465 11.1918 2.30465 13.65 4.75684L14.3342 4.07268C11.4982 1.24243 6.90626 1.24243 4.07031 4.07268Z" fill="#F53A66"/>
</g>
<defs>
<clipPath id="clip0">
<rect y="24" width="24" height="24" transform="rotate(-90 0 24)" fill="white"/>
</clipPath>
</defs>
</svg>
