<svg width="139" height="266" viewBox="0 0 139 266" fill="none" xmlns="http://www.w3.org/2000/svg">
<rect width="139" height="266" rx="5" fill="black" fill-opacity="0.46"/>
<rect x="0.5" y="0.5" width="138" height="265" rx="4.5" stroke="white" stroke-opacity="0.35"/>
<path d="M57.5967 19.0293C57.5967 18.3231 57.8377 17.7347 58.3197 17.2639C58.8016 16.7887 59.419 16.551 60.1719 16.551C60.9247 16.551 61.5421 16.7887 62.0241 17.2639C62.5061 17.7347 62.747 18.3231 62.747 19.0293C62.747 19.7535 62.5061 20.3578 62.0241 20.8421C61.5421 21.3264 60.9247 21.5686 60.1719 21.5686C59.419 21.5686 58.8016 21.3264 58.3197 20.8421C57.8377 20.3578 57.5967 19.7535 57.5967 19.0293ZM58.843 19.0293C58.843 19.4457 58.9669 19.792 59.2148 20.0681C59.4672 20.3442 59.7863 20.4823 60.1719 20.4823C60.5575 20.4823 60.8742 20.3442 61.1221 20.0681C61.3745 19.792 61.5008 19.4457 61.5008 19.0293C61.5008 18.6309 61.3745 18.3005 61.1221 18.038C60.8742 17.7709 60.5575 17.6374 60.1719 17.6374C59.7863 17.6374 59.4672 17.7709 59.2148 18.038C58.9669 18.3005 58.843 18.6309 58.843 19.0293ZM63.5135 21.4871V16.6325H64.7322L66.0956 18.9003C66.1506 18.9953 66.2126 19.113 66.2815 19.2533C66.3503 19.3891 66.4054 19.5023 66.4467 19.5928L66.5087 19.7286H66.5225C66.4857 19.3801 66.4674 19.104 66.4674 18.9003V16.6325H67.6723V21.4871H66.4605L65.0903 19.2262C65.0352 19.1311 64.9732 19.0157 64.9044 18.8799C64.8355 18.7396 64.7804 18.6241 64.7391 18.5336L64.6771 18.3978H64.6634C64.7001 18.7464 64.7185 19.0225 64.7185 19.2262V21.4871H63.5135ZM68.7045 21.4871V16.6325H71.7892V17.651H69.9095V18.5336H71.4105V19.5521H69.9095V20.4687H71.8856V21.4871H68.7045Z" fill="url(#paint0_linear)"/>
<path d="M73.2915 21.4871V16.7343H73.5669L76.3142 20.4619L76.7067 21.0594H76.7205C76.6975 20.8195 76.6861 20.6203 76.6861 20.4619V16.7343H76.9821V21.4871H76.7067L73.9594 17.7596L73.5669 17.1621H73.5532C73.5761 17.402 73.5876 17.6012 73.5876 17.7596V21.4871H73.2915ZM78.4556 21.4871V16.7343H78.7517V21.4871H78.4556ZM79.9005 19.1107C79.9005 18.4227 80.13 17.8411 80.589 17.3658C81.0526 16.8905 81.6241 16.6529 82.3035 16.6529C82.9737 16.6529 83.5337 16.8317 83.9836 17.1892L83.8046 17.4133C83.6255 17.2685 83.3983 17.153 83.1229 17.067C82.8475 16.9765 82.5743 16.9312 82.3035 16.9312C81.7022 16.9312 81.2018 17.1395 80.8025 17.5559C80.4077 17.9723 80.2103 18.4906 80.2103 19.1107C80.2103 19.7309 80.4031 20.2491 80.7887 20.6656C81.1789 21.082 81.67 21.2902 82.2622 21.2902C82.5743 21.2902 82.875 21.2201 83.1642 21.0798C83.458 20.9394 83.7081 20.7493 83.9147 20.5094V19.5928H83.054V19.3212H84.2108V21.4871H83.9147V21.073L83.9216 20.8693H83.9078C83.7196 21.0775 83.4809 21.2472 83.1917 21.3785C82.9025 21.5052 82.5927 21.5686 82.2622 21.5686C81.592 21.5686 81.0297 21.3332 80.5752 20.8625C80.1254 20.3872 79.9005 19.8033 79.9005 19.1107ZM85.4151 21.4871V16.7343H85.7112V18.9682H88.7684V16.7343H89.0644V21.4871H88.7684V19.2397H85.7112V21.4871H85.4151ZM91.7233 21.4871V17.0059H89.9261V16.7343H93.8165V17.0059H92.0193V21.4871H91.7233Z" fill="white"/>
<path d="M48.344 24.3671C48.1161 24.3671 47.8879 24.3139 47.6838 24.2132C47.0674 23.9091 45.8636 23.2567 44.728 22.3057C43.2507 21.0686 42.3751 19.7408 42.1255 18.3589C41.9316 17.2856 42.2084 16.1898 42.885 15.3525C43.5117 14.5772 44.3997 14.1241 45.3854 14.0768C45.4434 14.074 45.5021 14.0726 45.56 14.0726C46.4835 14.0726 47.3554 14.4236 48.0149 15.0609C48.1341 15.176 48.2439 15.2982 48.3439 15.4263C48.444 15.2981 48.5538 15.176 48.673 15.0608C49.3326 14.4235 50.2044 14.0726 51.128 14.0726C51.1858 14.0726 51.2445 14.074 51.3025 14.0768C52.2883 14.1242 53.1762 14.5772 53.8029 15.3527C54.4796 16.1898 54.7564 17.2856 54.5624 18.3589C54.3128 19.7406 53.4372 21.0685 51.96 22.3056C50.8244 23.2566 49.6208 23.9089 49.0042 24.2131C48.8002 24.3139 48.5719 24.3671 48.344 24.3671Z" fill="url(#paint1_linear)"/>
<path d="M48.3445 23.6083C48.1814 23.6083 48.0178 23.5715 47.8716 23.5018C47.3003 23.2297 46.1849 22.6465 45.1347 21.7976C43.795 20.7148 43.0028 19.5629 42.7802 18.3738C42.6134 17.483 42.8509 16.5743 43.4316 15.8808C43.964 15.2451 44.7174 14.8737 45.5531 14.8349C45.6026 14.8325 45.6527 14.8314 45.702 14.8314C46.4883 14.8314 47.2304 15.1198 47.7919 15.6433C47.8928 15.7373 47.9871 15.8385 48.0724 15.944L48.3447 16.2806L48.6169 15.944C48.7024 15.8385 48.7967 15.7372 48.8975 15.6433C49.4589 15.1197 50.2012 14.8314 50.9874 14.8314C51.0368 14.8314 51.0868 14.8325 51.1363 14.8349C51.972 14.8737 52.7254 15.2451 53.2578 15.8808C53.8385 16.5743 54.0759 17.483 53.9092 18.3738C53.6867 19.5629 52.8946 20.7148 51.5549 21.7976C50.5045 22.6466 49.3892 23.2298 48.8179 23.5018C48.6714 23.5716 48.5078 23.6083 48.3445 23.6083Z" fill="url(#paint2_linear)"/>
<path d="M53.803 15.3528C53.5681 15.0622 53.2964 14.8169 52.9967 14.6211C53.5438 15.4223 53.756 16.4154 53.58 17.3902C53.3303 18.7719 52.4547 20.0998 50.9775 21.3368C49.842 22.2878 48.6383 22.9402 48.0217 23.2444C47.8177 23.345 47.5894 23.3982 47.3615 23.3982C47.1336 23.3982 46.9054 23.345 46.7013 23.2444C46.0849 22.9402 44.8811 22.2878 43.7455 21.3368C43.6969 21.296 43.6489 21.2553 43.6016 21.2143C43.9268 21.5849 44.3022 21.9491 44.728 22.3057C45.8636 23.2567 47.0674 23.9091 47.6839 24.2132C47.8879 24.3139 48.1162 24.3671 48.3441 24.3671C48.5719 24.3671 48.8002 24.3139 49.0042 24.2132C49.6208 23.9091 50.8245 23.2567 51.9601 22.3057C53.4374 21.0686 54.313 19.7408 54.5625 18.359C54.7565 17.2857 54.4796 16.1899 53.803 15.3528Z" fill="url(#paint3_linear)"/>
<path d="M51.3027 14.0769C51.2448 14.0741 51.186 14.0727 51.1281 14.0727C50.2046 14.0727 49.3327 14.4237 48.6732 15.0609C48.5541 15.176 48.4443 15.2982 48.3442 15.4263V24.3669C48.5721 24.3669 48.8004 24.3138 49.0044 24.2131C49.6209 23.9089 50.8247 23.2565 51.9603 22.3056C53.4376 21.0685 54.3131 19.7406 54.5628 18.3589C54.7567 17.2856 54.4799 16.1898 53.8032 15.3527C53.1764 14.5773 52.2883 14.1242 51.3027 14.0769Z" fill="url(#paint4_linear)"/>
<rect x="1" y="39" width="68" height="97" fill="#6A6A6A" fill-opacity="0.33"/>
<path d="M12.7734 119H12.208L10.0605 115.713V119H9.49512V114.734H10.0605L12.2139 118.036V114.734H12.7734V119ZM15.6445 119C15.6133 118.938 15.5879 118.826 15.5684 118.666C15.3164 118.928 15.0156 119.059 14.666 119.059C14.3535 119.059 14.0967 118.971 13.8955 118.795C13.6963 118.617 13.5967 118.393 13.5967 118.121C13.5967 117.791 13.7217 117.535 13.9717 117.354C14.2236 117.17 14.5771 117.078 15.0322 117.078H15.5596V116.829C15.5596 116.64 15.5029 116.489 15.3896 116.378C15.2764 116.265 15.1094 116.208 14.8887 116.208C14.6953 116.208 14.5332 116.257 14.4023 116.354C14.2715 116.452 14.2061 116.57 14.2061 116.709H13.6611C13.6611 116.551 13.7168 116.398 13.8281 116.252C13.9414 116.104 14.0938 115.986 14.2852 115.9C14.4785 115.814 14.6904 115.771 14.9209 115.771C15.2861 115.771 15.5723 115.863 15.7793 116.047C15.9863 116.229 16.0938 116.479 16.1016 116.8V118.259C16.1016 118.55 16.1387 118.781 16.2129 118.953V119H15.6445ZM14.7451 118.587C14.915 118.587 15.0762 118.543 15.2285 118.455C15.3809 118.367 15.4912 118.253 15.5596 118.112V117.462H15.1348C14.4707 117.462 14.1387 117.656 14.1387 118.045C14.1387 118.215 14.1953 118.348 14.3086 118.443C14.4219 118.539 14.5674 118.587 14.7451 118.587ZM17.4609 115.83L17.4756 116.182C17.708 115.908 18.0215 115.771 18.416 115.771C18.8594 115.771 19.1611 115.941 19.3213 116.281C19.4268 116.129 19.5635 116.006 19.7314 115.912C19.9014 115.818 20.1016 115.771 20.332 115.771C21.0273 115.771 21.3809 116.14 21.3926 116.876V119H20.8506V116.908C20.8506 116.682 20.7988 116.513 20.6953 116.401C20.5918 116.288 20.418 116.231 20.1738 116.231C19.9727 116.231 19.8057 116.292 19.6729 116.413C19.54 116.532 19.4629 116.693 19.4414 116.896V119H18.8965V116.923C18.8965 116.462 18.6709 116.231 18.2197 116.231C17.8643 116.231 17.6211 116.383 17.4902 116.686V119H16.9482V115.83H17.4609ZM23.5283 119.059C23.0986 119.059 22.749 118.918 22.4795 118.637C22.21 118.354 22.0752 117.976 22.0752 117.503V117.403C22.0752 117.089 22.1348 116.809 22.2539 116.562C22.375 116.314 22.543 116.121 22.7578 115.982C22.9746 115.842 23.209 115.771 23.4609 115.771C23.873 115.771 24.1934 115.907 24.4219 116.179C24.6504 116.45 24.7646 116.839 24.7646 117.345V117.57H22.6172C22.625 117.883 22.7158 118.136 22.8896 118.329C23.0654 118.521 23.2881 118.616 23.5576 118.616C23.749 118.616 23.9111 118.577 24.0439 118.499C24.1768 118.421 24.293 118.317 24.3926 118.188L24.7236 118.446C24.458 118.854 24.0596 119.059 23.5283 119.059ZM23.4609 116.217C23.2422 116.217 23.0586 116.297 22.9102 116.457C22.7617 116.615 22.6699 116.838 22.6348 117.125H24.2227V117.084C24.207 116.809 24.1328 116.596 24 116.445C23.8672 116.293 23.6875 116.217 23.4609 116.217ZM27.6943 114.734L29.0889 118.215L30.4834 114.734H31.2129V119H30.6504V117.339L30.7031 115.546L29.3027 119H28.8721L27.4746 115.555L27.5303 117.339V119H26.9678V114.734H27.6943ZM31.9775 117.386C31.9775 117.075 32.0381 116.796 32.1592 116.548C32.2822 116.3 32.4521 116.108 32.6689 115.974C32.8877 115.839 33.1367 115.771 33.416 115.771C33.8477 115.771 34.1963 115.921 34.4619 116.22C34.7295 116.519 34.8633 116.916 34.8633 117.412V117.45C34.8633 117.759 34.8037 118.036 34.6846 118.282C34.5674 118.526 34.3984 118.717 34.1777 118.854C33.959 118.99 33.707 119.059 33.4219 119.059C32.9922 119.059 32.6436 118.909 32.376 118.61C32.1104 118.312 31.9775 117.916 31.9775 117.424V117.386ZM32.5225 117.45C32.5225 117.802 32.6035 118.084 32.7656 118.297C32.9297 118.51 33.1484 118.616 33.4219 118.616C33.6973 118.616 33.916 118.509 34.0781 118.294C34.2402 118.077 34.3213 117.774 34.3213 117.386C34.3213 117.038 34.2383 116.757 34.0723 116.542C33.9082 116.325 33.6895 116.217 33.416 116.217C33.1484 116.217 32.9326 116.323 32.7686 116.536C32.6045 116.749 32.5225 117.054 32.5225 117.45ZM35.4111 117.389C35.4111 116.902 35.5264 116.512 35.7568 116.217C35.9873 115.92 36.2891 115.771 36.6621 115.771C37.0332 115.771 37.3271 115.898 37.5439 116.152V114.5H38.0859V119H37.5879L37.5615 118.66C37.3447 118.926 37.043 119.059 36.6562 119.059C36.2891 119.059 35.9893 118.908 35.7568 118.607C35.5264 118.307 35.4111 117.914 35.4111 117.43V117.389ZM35.9531 117.45C35.9531 117.81 36.0273 118.091 36.1758 118.294C36.3242 118.497 36.5293 118.599 36.791 118.599C37.1348 118.599 37.3857 118.444 37.5439 118.136V116.68C37.3818 116.381 37.1328 116.231 36.7969 116.231C36.5312 116.231 36.3242 116.334 36.1758 116.539C36.0273 116.744 35.9531 117.048 35.9531 117.45ZM40.2451 119.059C39.8154 119.059 39.4658 118.918 39.1963 118.637C38.9268 118.354 38.792 117.976 38.792 117.503V117.403C38.792 117.089 38.8516 116.809 38.9707 116.562C39.0918 116.314 39.2598 116.121 39.4746 115.982C39.6914 115.842 39.9258 115.771 40.1777 115.771C40.5898 115.771 40.9102 115.907 41.1387 116.179C41.3672 116.45 41.4814 116.839 41.4814 117.345V117.57H39.334C39.3418 117.883 39.4326 118.136 39.6064 118.329C39.7822 118.521 40.0049 118.616 40.2744 118.616C40.4658 118.616 40.6279 118.577 40.7607 118.499C40.8936 118.421 41.0098 118.317 41.1094 118.188L41.4404 118.446C41.1748 118.854 40.7764 119.059 40.2451 119.059ZM40.1777 116.217C39.959 116.217 39.7754 116.297 39.627 116.457C39.4785 116.615 39.3867 116.838 39.3516 117.125H40.9395V117.084C40.9238 116.809 40.8496 116.596 40.7168 116.445C40.584 116.293 40.4043 116.217 40.1777 116.217ZM42.7002 119H42.1582V114.5H42.7002V119Z" fill="white"/>
<path d="M10.8164 124.323C10.79 124.549 10.7065 124.723 10.5659 124.846C10.4263 124.968 10.2402 125.029 10.0078 125.029C9.75586 125.029 9.55371 124.939 9.40137 124.758C9.25 124.578 9.17432 124.336 9.17432 124.033V123.828C9.17432 123.63 9.20947 123.456 9.27979 123.305C9.35107 123.155 9.45166 123.04 9.58154 122.959C9.71143 122.878 9.86182 122.838 10.0327 122.838C10.2593 122.838 10.4409 122.901 10.5776 123.028C10.7144 123.154 10.7939 123.329 10.8164 123.553H10.5337C10.5093 123.383 10.4561 123.26 10.374 123.184C10.293 123.107 10.1792 123.069 10.0327 123.069C9.85303 123.069 9.71191 123.136 9.60938 123.269C9.50781 123.401 9.45703 123.59 9.45703 123.835V124.042C9.45703 124.273 9.50537 124.458 9.60205 124.594C9.69873 124.731 9.83398 124.799 10.0078 124.799C10.1641 124.799 10.2837 124.764 10.3667 124.694C10.4507 124.623 10.5063 124.499 10.5337 124.323H10.8164ZM11.0874 124.193C11.0874 124.038 11.1177 123.898 11.1782 123.774C11.2397 123.65 11.3247 123.554 11.4331 123.487C11.5425 123.419 11.667 123.386 11.8066 123.386C12.0225 123.386 12.1968 123.46 12.3296 123.61C12.4634 123.759 12.5303 123.958 12.5303 124.206V124.225C12.5303 124.379 12.5005 124.518 12.4409 124.641C12.3823 124.763 12.2979 124.858 12.1875 124.927C12.0781 124.995 11.9521 125.029 11.8096 125.029C11.5947 125.029 11.4204 124.955 11.2866 124.805C11.1538 124.656 11.0874 124.458 11.0874 124.212V124.193ZM11.3599 124.225C11.3599 124.401 11.4004 124.542 11.4814 124.648C11.5635 124.755 11.6729 124.808 11.8096 124.808C11.9473 124.808 12.0566 124.754 12.1377 124.647C12.2188 124.539 12.2593 124.387 12.2593 124.193C12.2593 124.019 12.2178 123.878 12.1348 123.771C12.0527 123.663 11.9434 123.608 11.8066 123.608C11.6729 123.608 11.5649 123.662 11.4829 123.768C11.4009 123.875 11.3599 124.027 11.3599 124.225ZM13.8486 124.843C13.7432 124.967 13.5884 125.029 13.3843 125.029C13.2153 125.029 13.0864 124.98 12.9976 124.883C12.9097 124.784 12.8652 124.639 12.8643 124.446V123.415H13.1353V124.439C13.1353 124.679 13.2329 124.799 13.4282 124.799C13.6353 124.799 13.7729 124.722 13.8413 124.568V123.415H14.1123V125H13.8545L13.8486 124.843ZM14.7817 123.415L14.7905 123.614C14.9116 123.462 15.0698 123.386 15.2651 123.386C15.6001 123.386 15.769 123.575 15.772 123.953V125H15.501V123.951C15.5 123.837 15.4736 123.752 15.4219 123.698C15.3711 123.643 15.2915 123.616 15.1831 123.616C15.0952 123.616 15.0181 123.639 14.9517 123.686C14.8853 123.733 14.8335 123.794 14.7964 123.871V125H14.5254V123.415H14.7817ZM16.5483 123.031V123.415H16.8442V123.625H16.5483V124.607C16.5483 124.671 16.5615 124.719 16.5879 124.751C16.6143 124.782 16.6592 124.798 16.7227 124.798C16.7539 124.798 16.7969 124.792 16.8516 124.78V125C16.7803 125.02 16.7109 125.029 16.6436 125.029C16.5225 125.029 16.4312 124.993 16.3696 124.919C16.3081 124.846 16.2773 124.742 16.2773 124.607V123.625H15.9888V123.415H16.2773V123.031H16.5483ZM17.9282 123.658C17.8872 123.651 17.8428 123.648 17.7949 123.648C17.6172 123.648 17.4966 123.724 17.4331 123.875V125H17.1621V123.415H17.4258L17.4302 123.598C17.519 123.457 17.645 123.386 17.8081 123.386C17.8608 123.386 17.9009 123.393 17.9282 123.406V123.658ZM18.7236 124.603L19.0928 123.415H19.3828L18.7456 125.245C18.647 125.508 18.4902 125.64 18.2754 125.64L18.2241 125.636L18.123 125.617V125.397L18.1963 125.403C18.2881 125.403 18.3594 125.384 18.4102 125.347C18.4619 125.31 18.5044 125.242 18.5376 125.144L18.5977 124.982L18.0322 123.415H18.3281L18.7236 124.603ZM20.4243 125.183H20.1914L21.082 122.867H21.3135L20.4243 125.183ZM23.9619 124.323C23.9355 124.549 23.8521 124.723 23.7114 124.846C23.5718 124.968 23.3857 125.029 23.1533 125.029C22.9014 125.029 22.6992 124.939 22.5469 124.758C22.3955 124.578 22.3198 124.336 22.3198 124.033V123.828C22.3198 123.63 22.355 123.456 22.4253 123.305C22.4966 123.155 22.5972 123.04 22.7271 122.959C22.8569 122.878 23.0073 122.838 23.1782 122.838C23.4048 122.838 23.5864 122.901 23.7231 123.028C23.8599 123.154 23.9395 123.329 23.9619 123.553H23.6792C23.6548 123.383 23.6016 123.26 23.5195 123.184C23.4385 123.107 23.3247 123.069 23.1782 123.069C22.9985 123.069 22.8574 123.136 22.7549 123.269C22.6533 123.401 22.6025 123.59 22.6025 123.835V124.042C22.6025 124.273 22.6509 124.458 22.7476 124.594C22.8442 124.731 22.9795 124.799 23.1533 124.799C23.3096 124.799 23.4292 124.764 23.5122 124.694C23.5962 124.623 23.6519 124.499 23.6792 124.323H23.9619ZM24.5991 125H24.3281V123.415H24.5991V125ZM24.3062 122.995C24.3062 122.951 24.3193 122.914 24.3457 122.883C24.373 122.853 24.4131 122.838 24.4658 122.838C24.5186 122.838 24.5586 122.853 24.5859 122.883C24.6133 122.914 24.627 122.951 24.627 122.995C24.627 123.039 24.6133 123.075 24.5859 123.104C24.5586 123.134 24.5186 123.148 24.4658 123.148C24.4131 123.148 24.373 123.134 24.3457 123.104C24.3193 123.075 24.3062 123.039 24.3062 122.995ZM25.4019 123.031V123.415H25.6978V123.625H25.4019V124.607C25.4019 124.671 25.415 124.719 25.4414 124.751C25.4678 124.782 25.5127 124.798 25.5762 124.798C25.6074 124.798 25.6504 124.792 25.7051 124.78V125C25.6338 125.02 25.5645 125.029 25.4971 125.029C25.376 125.029 25.2847 124.993 25.2231 124.919C25.1616 124.846 25.1309 124.742 25.1309 124.607V123.625H24.8423V123.415H25.1309V123.031H25.4019ZM26.5342 124.603L26.9033 123.415H27.1934L26.5562 125.245C26.4575 125.508 26.3008 125.64 26.0859 125.64L26.0347 125.636L25.9336 125.617V125.397L26.0068 125.403C26.0986 125.403 26.1699 125.384 26.2207 125.347C26.2725 125.31 26.3149 125.242 26.3481 125.144L26.4082 124.982L25.8428 123.415H26.1387L26.5342 124.603Z" fill="white" fill-opacity="0.5"/>
<path d="M54 45H69V52H54V45Z" fill="#C4C4C4"/>
<path d="M56 53H69V60H56V53Z" fill="#C4C4C4"/>
<path d="M58 61H69V68H58V61Z" fill="#C4C4C4"/>
<rect x="1" y="137" width="68" height="97" fill="#6A6A6A" fill-opacity="0.33"/>
<path d="M12.7734 217H12.208L10.0605 213.713V217H9.49512V212.734H10.0605L12.2139 216.036V212.734H12.7734V217ZM15.6445 217C15.6133 216.938 15.5879 216.826 15.5684 216.666C15.3164 216.928 15.0156 217.059 14.666 217.059C14.3535 217.059 14.0967 216.971 13.8955 216.795C13.6963 216.617 13.5967 216.393 13.5967 216.121C13.5967 215.791 13.7217 215.535 13.9717 215.354C14.2236 215.17 14.5771 215.078 15.0322 215.078H15.5596V214.829C15.5596 214.64 15.5029 214.489 15.3896 214.378C15.2764 214.265 15.1094 214.208 14.8887 214.208C14.6953 214.208 14.5332 214.257 14.4023 214.354C14.2715 214.452 14.2061 214.57 14.2061 214.709H13.6611C13.6611 214.551 13.7168 214.398 13.8281 214.252C13.9414 214.104 14.0938 213.986 14.2852 213.9C14.4785 213.814 14.6904 213.771 14.9209 213.771C15.2861 213.771 15.5723 213.863 15.7793 214.047C15.9863 214.229 16.0938 214.479 16.1016 214.8V216.259C16.1016 216.55 16.1387 216.781 16.2129 216.953V217H15.6445ZM14.7451 216.587C14.915 216.587 15.0762 216.543 15.2285 216.455C15.3809 216.367 15.4912 216.253 15.5596 216.112V215.462H15.1348C14.4707 215.462 14.1387 215.656 14.1387 216.045C14.1387 216.215 14.1953 216.348 14.3086 216.443C14.4219 216.539 14.5674 216.587 14.7451 216.587ZM17.4609 213.83L17.4756 214.182C17.708 213.908 18.0215 213.771 18.416 213.771C18.8594 213.771 19.1611 213.941 19.3213 214.281C19.4268 214.129 19.5635 214.006 19.7314 213.912C19.9014 213.818 20.1016 213.771 20.332 213.771C21.0273 213.771 21.3809 214.14 21.3926 214.876V217H20.8506V214.908C20.8506 214.682 20.7988 214.513 20.6953 214.401C20.5918 214.288 20.418 214.231 20.1738 214.231C19.9727 214.231 19.8057 214.292 19.6729 214.413C19.54 214.532 19.4629 214.693 19.4414 214.896V217H18.8965V214.923C18.8965 214.462 18.6709 214.231 18.2197 214.231C17.8643 214.231 17.6211 214.383 17.4902 214.686V217H16.9482V213.83H17.4609ZM23.5283 217.059C23.0986 217.059 22.749 216.918 22.4795 216.637C22.21 216.354 22.0752 215.976 22.0752 215.503V215.403C22.0752 215.089 22.1348 214.809 22.2539 214.562C22.375 214.314 22.543 214.121 22.7578 213.982C22.9746 213.842 23.209 213.771 23.4609 213.771C23.873 213.771 24.1934 213.907 24.4219 214.179C24.6504 214.45 24.7646 214.839 24.7646 215.345V215.57H22.6172C22.625 215.883 22.7158 216.136 22.8896 216.329C23.0654 216.521 23.2881 216.616 23.5576 216.616C23.749 216.616 23.9111 216.577 24.0439 216.499C24.1768 216.421 24.293 216.317 24.3926 216.188L24.7236 216.446C24.458 216.854 24.0596 217.059 23.5283 217.059ZM23.4609 214.217C23.2422 214.217 23.0586 214.297 22.9102 214.457C22.7617 214.615 22.6699 214.838 22.6348 215.125H24.2227V215.084C24.207 214.809 24.1328 214.596 24 214.445C23.8672 214.293 23.6875 214.217 23.4609 214.217ZM27.6943 212.734L29.0889 216.215L30.4834 212.734H31.2129V217H30.6504V215.339L30.7031 213.546L29.3027 217H28.8721L27.4746 213.555L27.5303 215.339V217H26.9678V212.734H27.6943ZM31.9775 215.386C31.9775 215.075 32.0381 214.796 32.1592 214.548C32.2822 214.3 32.4521 214.108 32.6689 213.974C32.8877 213.839 33.1367 213.771 33.416 213.771C33.8477 213.771 34.1963 213.921 34.4619 214.22C34.7295 214.519 34.8633 214.916 34.8633 215.412V215.45C34.8633 215.759 34.8037 216.036 34.6846 216.282C34.5674 216.526 34.3984 216.717 34.1777 216.854C33.959 216.99 33.707 217.059 33.4219 217.059C32.9922 217.059 32.6436 216.909 32.376 216.61C32.1104 216.312 31.9775 215.916 31.9775 215.424V215.386ZM32.5225 215.45C32.5225 215.802 32.6035 216.084 32.7656 216.297C32.9297 216.51 33.1484 216.616 33.4219 216.616C33.6973 216.616 33.916 216.509 34.0781 216.294C34.2402 216.077 34.3213 215.774 34.3213 215.386C34.3213 215.038 34.2383 214.757 34.0723 214.542C33.9082 214.325 33.6895 214.217 33.416 214.217C33.1484 214.217 32.9326 214.323 32.7686 214.536C32.6045 214.749 32.5225 215.054 32.5225 215.45ZM35.4111 215.389C35.4111 214.902 35.5264 214.512 35.7568 214.217C35.9873 213.92 36.2891 213.771 36.6621 213.771C37.0332 213.771 37.3271 213.898 37.5439 214.152V212.5H38.0859V217H37.5879L37.5615 216.66C37.3447 216.926 37.043 217.059 36.6562 217.059C36.2891 217.059 35.9893 216.908 35.7568 216.607C35.5264 216.307 35.4111 215.914 35.4111 215.43V215.389ZM35.9531 215.45C35.9531 215.81 36.0273 216.091 36.1758 216.294C36.3242 216.497 36.5293 216.599 36.791 216.599C37.1348 216.599 37.3857 216.444 37.5439 216.136V214.68C37.3818 214.381 37.1328 214.231 36.7969 214.231C36.5312 214.231 36.3242 214.334 36.1758 214.539C36.0273 214.744 35.9531 215.048 35.9531 215.45ZM40.2451 217.059C39.8154 217.059 39.4658 216.918 39.1963 216.637C38.9268 216.354 38.792 215.976 38.792 215.503V215.403C38.792 215.089 38.8516 214.809 38.9707 214.562C39.0918 214.314 39.2598 214.121 39.4746 213.982C39.6914 213.842 39.9258 213.771 40.1777 213.771C40.5898 213.771 40.9102 213.907 41.1387 214.179C41.3672 214.45 41.4814 214.839 41.4814 215.345V215.57H39.334C39.3418 215.883 39.4326 216.136 39.6064 216.329C39.7822 216.521 40.0049 216.616 40.2744 216.616C40.4658 216.616 40.6279 216.577 40.7607 216.499C40.8936 216.421 41.0098 216.317 41.1094 216.188L41.4404 216.446C41.1748 216.854 40.7764 217.059 40.2451 217.059ZM40.1777 214.217C39.959 214.217 39.7754 214.297 39.627 214.457C39.4785 214.615 39.3867 214.838 39.3516 215.125H40.9395V215.084C40.9238 214.809 40.8496 214.596 40.7168 214.445C40.584 214.293 40.4043 214.217 40.1777 214.217ZM42.7002 217H42.1582V212.5H42.7002V217Z" fill="white"/>
<path d="M10.8164 222.323C10.79 222.549 10.7065 222.723 10.5659 222.846C10.4263 222.968 10.2402 223.029 10.0078 223.029C9.75586 223.029 9.55371 222.939 9.40137 222.758C9.25 222.578 9.17432 222.336 9.17432 222.033V221.828C9.17432 221.63 9.20947 221.456 9.27979 221.305C9.35107 221.155 9.45166 221.04 9.58154 220.959C9.71143 220.878 9.86182 220.838 10.0327 220.838C10.2593 220.838 10.4409 220.901 10.5776 221.028C10.7144 221.154 10.7939 221.329 10.8164 221.553H10.5337C10.5093 221.383 10.4561 221.26 10.374 221.184C10.293 221.107 10.1792 221.069 10.0327 221.069C9.85303 221.069 9.71191 221.136 9.60938 221.269C9.50781 221.401 9.45703 221.59 9.45703 221.835V222.042C9.45703 222.273 9.50537 222.458 9.60205 222.594C9.69873 222.731 9.83398 222.799 10.0078 222.799C10.1641 222.799 10.2837 222.764 10.3667 222.694C10.4507 222.623 10.5063 222.499 10.5337 222.323H10.8164ZM11.0874 222.193C11.0874 222.038 11.1177 221.898 11.1782 221.774C11.2397 221.65 11.3247 221.554 11.4331 221.487C11.5425 221.419 11.667 221.386 11.8066 221.386C12.0225 221.386 12.1968 221.46 12.3296 221.61C12.4634 221.759 12.5303 221.958 12.5303 222.206V222.225C12.5303 222.379 12.5005 222.518 12.4409 222.641C12.3823 222.763 12.2979 222.858 12.1875 222.927C12.0781 222.995 11.9521 223.029 11.8096 223.029C11.5947 223.029 11.4204 222.955 11.2866 222.805C11.1538 222.656 11.0874 222.458 11.0874 222.212V222.193ZM11.3599 222.225C11.3599 222.401 11.4004 222.542 11.4814 222.648C11.5635 222.755 11.6729 222.808 11.8096 222.808C11.9473 222.808 12.0566 222.754 12.1377 222.647C12.2188 222.539 12.2593 222.387 12.2593 222.193C12.2593 222.019 12.2178 221.878 12.1348 221.771C12.0527 221.663 11.9434 221.608 11.8066 221.608C11.6729 221.608 11.5649 221.662 11.4829 221.768C11.4009 221.875 11.3599 222.027 11.3599 222.225ZM13.8486 222.843C13.7432 222.967 13.5884 223.029 13.3843 223.029C13.2153 223.029 13.0864 222.98 12.9976 222.883C12.9097 222.784 12.8652 222.639 12.8643 222.446V221.415H13.1353V222.439C13.1353 222.679 13.2329 222.799 13.4282 222.799C13.6353 222.799 13.7729 222.722 13.8413 222.568V221.415H14.1123V223H13.8545L13.8486 222.843ZM14.7817 221.415L14.7905 221.614C14.9116 221.462 15.0698 221.386 15.2651 221.386C15.6001 221.386 15.769 221.575 15.772 221.953V223H15.501V221.951C15.5 221.837 15.4736 221.752 15.4219 221.698C15.3711 221.643 15.2915 221.616 15.1831 221.616C15.0952 221.616 15.0181 221.639 14.9517 221.686C14.8853 221.733 14.8335 221.794 14.7964 221.871V223H14.5254V221.415H14.7817ZM16.5483 221.031V221.415H16.8442V221.625H16.5483V222.607C16.5483 222.671 16.5615 222.719 16.5879 222.751C16.6143 222.782 16.6592 222.798 16.7227 222.798C16.7539 222.798 16.7969 222.792 16.8516 222.78V223C16.7803 223.02 16.7109 223.029 16.6436 223.029C16.5225 223.029 16.4312 222.993 16.3696 222.919C16.3081 222.846 16.2773 222.742 16.2773 222.607V221.625H15.9888V221.415H16.2773V221.031H16.5483ZM17.9282 221.658C17.8872 221.651 17.8428 221.648 17.7949 221.648C17.6172 221.648 17.4966 221.724 17.4331 221.875V223H17.1621V221.415H17.4258L17.4302 221.598C17.519 221.457 17.645 221.386 17.8081 221.386C17.8608 221.386 17.9009 221.393 17.9282 221.406V221.658ZM18.7236 222.603L19.0928 221.415H19.3828L18.7456 223.245C18.647 223.508 18.4902 223.64 18.2754 223.64L18.2241 223.636L18.123 223.617V223.397L18.1963 223.403C18.2881 223.403 18.3594 223.384 18.4102 223.347C18.4619 223.31 18.5044 223.242 18.5376 223.144L18.5977 222.982L18.0322 221.415H18.3281L18.7236 222.603ZM20.4243 223.183H20.1914L21.082 220.867H21.3135L20.4243 223.183ZM23.9619 222.323C23.9355 222.549 23.8521 222.723 23.7114 222.846C23.5718 222.968 23.3857 223.029 23.1533 223.029C22.9014 223.029 22.6992 222.939 22.5469 222.758C22.3955 222.578 22.3198 222.336 22.3198 222.033V221.828C22.3198 221.63 22.355 221.456 22.4253 221.305C22.4966 221.155 22.5972 221.04 22.7271 220.959C22.8569 220.878 23.0073 220.838 23.1782 220.838C23.4048 220.838 23.5864 220.901 23.7231 221.028C23.8599 221.154 23.9395 221.329 23.9619 221.553H23.6792C23.6548 221.383 23.6016 221.26 23.5195 221.184C23.4385 221.107 23.3247 221.069 23.1782 221.069C22.9985 221.069 22.8574 221.136 22.7549 221.269C22.6533 221.401 22.6025 221.59 22.6025 221.835V222.042C22.6025 222.273 22.6509 222.458 22.7476 222.594C22.8442 222.731 22.9795 222.799 23.1533 222.799C23.3096 222.799 23.4292 222.764 23.5122 222.694C23.5962 222.623 23.6519 222.499 23.6792 222.323H23.9619ZM24.5991 223H24.3281V221.415H24.5991V223ZM24.3062 220.995C24.3062 220.951 24.3193 220.914 24.3457 220.883C24.373 220.853 24.4131 220.838 24.4658 220.838C24.5186 220.838 24.5586 220.853 24.5859 220.883C24.6133 220.914 24.627 220.951 24.627 220.995C24.627 221.039 24.6133 221.075 24.5859 221.104C24.5586 221.134 24.5186 221.148 24.4658 221.148C24.4131 221.148 24.373 221.134 24.3457 221.104C24.3193 221.075 24.3062 221.039 24.3062 220.995ZM25.4019 221.031V221.415H25.6978V221.625H25.4019V222.607C25.4019 222.671 25.415 222.719 25.4414 222.751C25.4678 222.782 25.5127 222.798 25.5762 222.798C25.6074 222.798 25.6504 222.792 25.7051 222.78V223C25.6338 223.02 25.5645 223.029 25.4971 223.029C25.376 223.029 25.2847 222.993 25.2231 222.919C25.1616 222.846 25.1309 222.742 25.1309 222.607V221.625H24.8423V221.415H25.1309V221.031H25.4019ZM26.5342 222.603L26.9033 221.415H27.1934L26.5562 223.245C26.4575 223.508 26.3008 223.64 26.0859 223.64L26.0347 223.636L25.9336 223.617V223.397L26.0068 223.403C26.0986 223.403 26.1699 223.384 26.2207 223.347C26.2725 223.31 26.3149 223.242 26.3481 223.144L26.4082 222.982L25.8428 221.415H26.1387L26.5342 222.603Z" fill="white" fill-opacity="0.5"/>
<path d="M54 143H69V150H54V143Z" fill="#C4C4C4"/>
<path d="M56 151H69V158H56V151Z" fill="#C4C4C4"/>
<path d="M58 159H69V166H58V159Z" fill="#C4C4C4"/>
<rect x="70" y="39" width="68" height="97" fill="#6A6A6A" fill-opacity="0.33"/>
<path d="M81.7734 119H81.208L79.0605 115.713V119H78.4951V114.734H79.0605L81.2139 118.036V114.734H81.7734V119ZM84.6445 119C84.6133 118.938 84.5879 118.826 84.5684 118.666C84.3164 118.928 84.0156 119.059 83.666 119.059C83.3535 119.059 83.0967 118.971 82.8955 118.795C82.6963 118.617 82.5967 118.393 82.5967 118.121C82.5967 117.791 82.7217 117.535 82.9717 117.354C83.2236 117.17 83.5771 117.078 84.0322 117.078H84.5596V116.829C84.5596 116.64 84.5029 116.489 84.3896 116.378C84.2764 116.265 84.1094 116.208 83.8887 116.208C83.6953 116.208 83.5332 116.257 83.4023 116.354C83.2715 116.452 83.2061 116.57 83.2061 116.709H82.6611C82.6611 116.551 82.7168 116.398 82.8281 116.252C82.9414 116.104 83.0938 115.986 83.2852 115.9C83.4785 115.814 83.6904 115.771 83.9209 115.771C84.2861 115.771 84.5723 115.863 84.7793 116.047C84.9863 116.229 85.0938 116.479 85.1016 116.8V118.259C85.1016 118.55 85.1387 118.781 85.2129 118.953V119H84.6445ZM83.7451 118.587C83.915 118.587 84.0762 118.543 84.2285 118.455C84.3809 118.367 84.4912 118.253 84.5596 118.112V117.462H84.1348C83.4707 117.462 83.1387 117.656 83.1387 118.045C83.1387 118.215 83.1953 118.348 83.3086 118.443C83.4219 118.539 83.5674 118.587 83.7451 118.587ZM86.4609 115.83L86.4756 116.182C86.708 115.908 87.0215 115.771 87.416 115.771C87.8594 115.771 88.1611 115.941 88.3213 116.281C88.4268 116.129 88.5635 116.006 88.7314 115.912C88.9014 115.818 89.1016 115.771 89.332 115.771C90.0273 115.771 90.3809 116.14 90.3926 116.876V119H89.8506V116.908C89.8506 116.682 89.7988 116.513 89.6953 116.401C89.5918 116.288 89.418 116.231 89.1738 116.231C88.9727 116.231 88.8057 116.292 88.6729 116.413C88.54 116.532 88.4629 116.693 88.4414 116.896V119H87.8965V116.923C87.8965 116.462 87.6709 116.231 87.2197 116.231C86.8643 116.231 86.6211 116.383 86.4902 116.686V119H85.9482V115.83H86.4609ZM92.5283 119.059C92.0986 119.059 91.749 118.918 91.4795 118.637C91.21 118.354 91.0752 117.976 91.0752 117.503V117.403C91.0752 117.089 91.1348 116.809 91.2539 116.562C91.375 116.314 91.543 116.121 91.7578 115.982C91.9746 115.842 92.209 115.771 92.4609 115.771C92.873 115.771 93.1934 115.907 93.4219 116.179C93.6504 116.45 93.7646 116.839 93.7646 117.345V117.57H91.6172C91.625 117.883 91.7158 118.136 91.8896 118.329C92.0654 118.521 92.2881 118.616 92.5576 118.616C92.749 118.616 92.9111 118.577 93.0439 118.499C93.1768 118.421 93.293 118.317 93.3926 118.188L93.7236 118.446C93.458 118.854 93.0596 119.059 92.5283 119.059ZM92.4609 116.217C92.2422 116.217 92.0586 116.297 91.9102 116.457C91.7617 116.615 91.6699 116.838 91.6348 117.125H93.2227V117.084C93.207 116.809 93.1328 116.596 93 116.445C92.8672 116.293 92.6875 116.217 92.4609 116.217ZM96.6943 114.734L98.0889 118.215L99.4834 114.734H100.213V119H99.6504V117.339L99.7031 115.546L98.3027 119H97.8721L96.4746 115.555L96.5303 117.339V119H95.9678V114.734H96.6943ZM100.978 117.386C100.978 117.075 101.038 116.796 101.159 116.548C101.282 116.3 101.452 116.108 101.669 115.974C101.888 115.839 102.137 115.771 102.416 115.771C102.848 115.771 103.196 115.921 103.462 116.22C103.729 116.519 103.863 116.916 103.863 117.412V117.45C103.863 117.759 103.804 118.036 103.685 118.282C103.567 118.526 103.398 118.717 103.178 118.854C102.959 118.99 102.707 119.059 102.422 119.059C101.992 119.059 101.644 118.909 101.376 118.61C101.11 118.312 100.978 117.916 100.978 117.424V117.386ZM101.522 117.45C101.522 117.802 101.604 118.084 101.766 118.297C101.93 118.51 102.148 118.616 102.422 118.616C102.697 118.616 102.916 118.509 103.078 118.294C103.24 118.077 103.321 117.774 103.321 117.386C103.321 117.038 103.238 116.757 103.072 116.542C102.908 116.325 102.689 116.217 102.416 116.217C102.148 116.217 101.933 116.323 101.769 116.536C101.604 116.749 101.522 117.054 101.522 117.45ZM104.411 117.389C104.411 116.902 104.526 116.512 104.757 116.217C104.987 115.92 105.289 115.771 105.662 115.771C106.033 115.771 106.327 115.898 106.544 116.152V114.5H107.086V119H106.588L106.562 118.66C106.345 118.926 106.043 119.059 105.656 119.059C105.289 119.059 104.989 118.908 104.757 118.607C104.526 118.307 104.411 117.914 104.411 117.43V117.389ZM104.953 117.45C104.953 117.81 105.027 118.091 105.176 118.294C105.324 118.497 105.529 118.599 105.791 118.599C106.135 118.599 106.386 118.444 106.544 118.136V116.68C106.382 116.381 106.133 116.231 105.797 116.231C105.531 116.231 105.324 116.334 105.176 116.539C105.027 116.744 104.953 117.048 104.953 117.45ZM109.245 119.059C108.815 119.059 108.466 118.918 108.196 118.637C107.927 118.354 107.792 117.976 107.792 117.503V117.403C107.792 117.089 107.852 116.809 107.971 116.562C108.092 116.314 108.26 116.121 108.475 115.982C108.691 115.842 108.926 115.771 109.178 115.771C109.59 115.771 109.91 115.907 110.139 116.179C110.367 116.45 110.481 116.839 110.481 117.345V117.57H108.334C108.342 117.883 108.433 118.136 108.606 118.329C108.782 118.521 109.005 118.616 109.274 118.616C109.466 118.616 109.628 118.577 109.761 118.499C109.894 118.421 110.01 118.317 110.109 118.188L110.44 118.446C110.175 118.854 109.776 119.059 109.245 119.059ZM109.178 116.217C108.959 116.217 108.775 116.297 108.627 116.457C108.479 116.615 108.387 116.838 108.352 117.125H109.939V117.084C109.924 116.809 109.85 116.596 109.717 116.445C109.584 116.293 109.404 116.217 109.178 116.217ZM111.7 119H111.158V114.5H111.7V119Z" fill="white"/>
<path d="M79.8164 124.323C79.79 124.549 79.7065 124.723 79.5659 124.846C79.4263 124.968 79.2402 125.029 79.0078 125.029C78.7559 125.029 78.5537 124.939 78.4014 124.758C78.25 124.578 78.1743 124.336 78.1743 124.033V123.828C78.1743 123.63 78.2095 123.456 78.2798 123.305C78.3511 123.155 78.4517 123.04 78.5815 122.959C78.7114 122.878 78.8618 122.838 79.0327 122.838C79.2593 122.838 79.4409 122.901 79.5776 123.028C79.7144 123.154 79.7939 123.329 79.8164 123.553H79.5337C79.5093 123.383 79.4561 123.26 79.374 123.184C79.293 123.107 79.1792 123.069 79.0327 123.069C78.853 123.069 78.7119 123.136 78.6094 123.269C78.5078 123.401 78.457 123.59 78.457 123.835V124.042C78.457 124.273 78.5054 124.458 78.6021 124.594C78.6987 124.731 78.834 124.799 79.0078 124.799C79.1641 124.799 79.2837 124.764 79.3667 124.694C79.4507 124.623 79.5063 124.499 79.5337 124.323H79.8164ZM80.0874 124.193C80.0874 124.038 80.1177 123.898 80.1782 123.774C80.2397 123.65 80.3247 123.554 80.4331 123.487C80.5425 123.419 80.667 123.386 80.8066 123.386C81.0225 123.386 81.1968 123.46 81.3296 123.61C81.4634 123.759 81.5303 123.958 81.5303 124.206V124.225C81.5303 124.379 81.5005 124.518 81.4409 124.641C81.3823 124.763 81.2979 124.858 81.1875 124.927C81.0781 124.995 80.9521 125.029 80.8096 125.029C80.5947 125.029 80.4204 124.955 80.2866 124.805C80.1538 124.656 80.0874 124.458 80.0874 124.212V124.193ZM80.3599 124.225C80.3599 124.401 80.4004 124.542 80.4814 124.648C80.5635 124.755 80.6729 124.808 80.8096 124.808C80.9473 124.808 81.0566 124.754 81.1377 124.647C81.2188 124.539 81.2593 124.387 81.2593 124.193C81.2593 124.019 81.2178 123.878 81.1348 123.771C81.0527 123.663 80.9434 123.608 80.8066 123.608C80.6729 123.608 80.5649 123.662 80.4829 123.768C80.4009 123.875 80.3599 124.027 80.3599 124.225ZM82.8486 124.843C82.7432 124.967 82.5884 125.029 82.3843 125.029C82.2153 125.029 82.0864 124.98 81.9976 124.883C81.9097 124.784 81.8652 124.639 81.8643 124.446V123.415H82.1353V124.439C82.1353 124.679 82.2329 124.799 82.4282 124.799C82.6353 124.799 82.7729 124.722 82.8413 124.568V123.415H83.1123V125H82.8545L82.8486 124.843ZM83.7817 123.415L83.7905 123.614C83.9116 123.462 84.0698 123.386 84.2651 123.386C84.6001 123.386 84.769 123.575 84.772 123.953V125H84.501V123.951C84.5 123.837 84.4736 123.752 84.4219 123.698C84.3711 123.643 84.2915 123.616 84.1831 123.616C84.0952 123.616 84.0181 123.639 83.9517 123.686C83.8853 123.733 83.8335 123.794 83.7964 123.871V125H83.5254V123.415H83.7817ZM85.5483 123.031V123.415H85.8442V123.625H85.5483V124.607C85.5483 124.671 85.5615 124.719 85.5879 124.751C85.6143 124.782 85.6592 124.798 85.7227 124.798C85.7539 124.798 85.7969 124.792 85.8516 124.78V125C85.7803 125.02 85.7109 125.029 85.6436 125.029C85.5225 125.029 85.4312 124.993 85.3696 124.919C85.3081 124.846 85.2773 124.742 85.2773 124.607V123.625H84.9888V123.415H85.2773V123.031H85.5483ZM86.9282 123.658C86.8872 123.651 86.8428 123.648 86.7949 123.648C86.6172 123.648 86.4966 123.724 86.4331 123.875V125H86.1621V123.415H86.4258L86.4302 123.598C86.519 123.457 86.645 123.386 86.8081 123.386C86.8608 123.386 86.9009 123.393 86.9282 123.406V123.658ZM87.7236 124.603L88.0928 123.415H88.3828L87.7456 125.245C87.647 125.508 87.4902 125.64 87.2754 125.64L87.2241 125.636L87.123 125.617V125.397L87.1963 125.403C87.2881 125.403 87.3594 125.384 87.4102 125.347C87.4619 125.31 87.5044 125.242 87.5376 125.144L87.5977 124.982L87.0322 123.415H87.3281L87.7236 124.603ZM89.4243 125.183H89.1914L90.082 122.867H90.3135L89.4243 125.183ZM92.9619 124.323C92.9355 124.549 92.8521 124.723 92.7114 124.846C92.5718 124.968 92.3857 125.029 92.1533 125.029C91.9014 125.029 91.6992 124.939 91.5469 124.758C91.3955 124.578 91.3198 124.336 91.3198 124.033V123.828C91.3198 123.63 91.355 123.456 91.4253 123.305C91.4966 123.155 91.5972 123.04 91.7271 122.959C91.8569 122.878 92.0073 122.838 92.1782 122.838C92.4048 122.838 92.5864 122.901 92.7231 123.028C92.8599 123.154 92.9395 123.329 92.9619 123.553H92.6792C92.6548 123.383 92.6016 123.26 92.5195 123.184C92.4385 123.107 92.3247 123.069 92.1782 123.069C91.9985 123.069 91.8574 123.136 91.7549 123.269C91.6533 123.401 91.6025 123.59 91.6025 123.835V124.042C91.6025 124.273 91.6509 124.458 91.7476 124.594C91.8442 124.731 91.9795 124.799 92.1533 124.799C92.3096 124.799 92.4292 124.764 92.5122 124.694C92.5962 124.623 92.6519 124.499 92.6792 124.323H92.9619ZM93.5991 125H93.3281V123.415H93.5991V125ZM93.3062 122.995C93.3062 122.951 93.3193 122.914 93.3457 122.883C93.373 122.853 93.4131 122.838 93.4658 122.838C93.5186 122.838 93.5586 122.853 93.5859 122.883C93.6133 122.914 93.627 122.951 93.627 122.995C93.627 123.039 93.6133 123.075 93.5859 123.104C93.5586 123.134 93.5186 123.148 93.4658 123.148C93.4131 123.148 93.373 123.134 93.3457 123.104C93.3193 123.075 93.3062 123.039 93.3062 122.995ZM94.4019 123.031V123.415H94.6978V123.625H94.4019V124.607C94.4019 124.671 94.415 124.719 94.4414 124.751C94.4678 124.782 94.5127 124.798 94.5762 124.798C94.6074 124.798 94.6504 124.792 94.7051 124.78V125C94.6338 125.02 94.5645 125.029 94.4971 125.029C94.376 125.029 94.2847 124.993 94.2231 124.919C94.1616 124.846 94.1309 124.742 94.1309 124.607V123.625H93.8423V123.415H94.1309V123.031H94.4019ZM95.5342 124.603L95.9033 123.415H96.1934L95.5562 125.245C95.4575 125.508 95.3008 125.64 95.0859 125.64L95.0347 125.636L94.9336 125.617V125.397L95.0068 125.403C95.0986 125.403 95.1699 125.384 95.2207 125.347C95.2725 125.31 95.3149 125.242 95.3481 125.144L95.4082 124.982L94.8428 123.415H95.1387L95.5342 124.603Z" fill="white" fill-opacity="0.5"/>
<path d="M123 45H138V52H123V45Z" fill="#C4C4C4"/>
<path d="M125 53H138V60H125V53Z" fill="#C4C4C4"/>
<path d="M127 61H138V68H127V61Z" fill="#C4C4C4"/>
<rect x="70" y="137" width="68" height="97" fill="#6A6A6A" fill-opacity="0.33"/>
<path d="M81.7734 217H81.208L79.0605 213.713V217H78.4951V212.734H79.0605L81.2139 216.036V212.734H81.7734V217ZM84.6445 217C84.6133 216.938 84.5879 216.826 84.5684 216.666C84.3164 216.928 84.0156 217.059 83.666 217.059C83.3535 217.059 83.0967 216.971 82.8955 216.795C82.6963 216.617 82.5967 216.393 82.5967 216.121C82.5967 215.791 82.7217 215.535 82.9717 215.354C83.2236 215.17 83.5771 215.078 84.0322 215.078H84.5596V214.829C84.5596 214.64 84.5029 214.489 84.3896 214.378C84.2764 214.265 84.1094 214.208 83.8887 214.208C83.6953 214.208 83.5332 214.257 83.4023 214.354C83.2715 214.452 83.2061 214.57 83.2061 214.709H82.6611C82.6611 214.551 82.7168 214.398 82.8281 214.252C82.9414 214.104 83.0938 213.986 83.2852 213.9C83.4785 213.814 83.6904 213.771 83.9209 213.771C84.2861 213.771 84.5723 213.863 84.7793 214.047C84.9863 214.229 85.0938 214.479 85.1016 214.8V216.259C85.1016 216.55 85.1387 216.781 85.2129 216.953V217H84.6445ZM83.7451 216.587C83.915 216.587 84.0762 216.543 84.2285 216.455C84.3809 216.367 84.4912 216.253 84.5596 216.112V215.462H84.1348C83.4707 215.462 83.1387 215.656 83.1387 216.045C83.1387 216.215 83.1953 216.348 83.3086 216.443C83.4219 216.539 83.5674 216.587 83.7451 216.587ZM86.4609 213.83L86.4756 214.182C86.708 213.908 87.0215 213.771 87.416 213.771C87.8594 213.771 88.1611 213.941 88.3213 214.281C88.4268 214.129 88.5635 214.006 88.7314 213.912C88.9014 213.818 89.1016 213.771 89.332 213.771C90.0273 213.771 90.3809 214.14 90.3926 214.876V217H89.8506V214.908C89.8506 214.682 89.7988 214.513 89.6953 214.401C89.5918 214.288 89.418 214.231 89.1738 214.231C88.9727 214.231 88.8057 214.292 88.6729 214.413C88.54 214.532 88.4629 214.693 88.4414 214.896V217H87.8965V214.923C87.8965 214.462 87.6709 214.231 87.2197 214.231C86.8643 214.231 86.6211 214.383 86.4902 214.686V217H85.9482V213.83H86.4609ZM92.5283 217.059C92.0986 217.059 91.749 216.918 91.4795 216.637C91.21 216.354 91.0752 215.976 91.0752 215.503V215.403C91.0752 215.089 91.1348 214.809 91.2539 214.562C91.375 214.314 91.543 214.121 91.7578 213.982C91.9746 213.842 92.209 213.771 92.4609 213.771C92.873 213.771 93.1934 213.907 93.4219 214.179C93.6504 214.45 93.7646 214.839 93.7646 215.345V215.57H91.6172C91.625 215.883 91.7158 216.136 91.8896 216.329C92.0654 216.521 92.2881 216.616 92.5576 216.616C92.749 216.616 92.9111 216.577 93.0439 216.499C93.1768 216.421 93.293 216.317 93.3926 216.188L93.7236 216.446C93.458 216.854 93.0596 217.059 92.5283 217.059ZM92.4609 214.217C92.2422 214.217 92.0586 214.297 91.9102 214.457C91.7617 214.615 91.6699 214.838 91.6348 215.125H93.2227V215.084C93.207 214.809 93.1328 214.596 93 214.445C92.8672 214.293 92.6875 214.217 92.4609 214.217ZM96.6943 212.734L98.0889 216.215L99.4834 212.734H100.213V217H99.6504V215.339L99.7031 213.546L98.3027 217H97.8721L96.4746 213.555L96.5303 215.339V217H95.9678V212.734H96.6943ZM100.978 215.386C100.978 215.075 101.038 214.796 101.159 214.548C101.282 214.3 101.452 214.108 101.669 213.974C101.888 213.839 102.137 213.771 102.416 213.771C102.848 213.771 103.196 213.921 103.462 214.22C103.729 214.519 103.863 214.916 103.863 215.412V215.45C103.863 215.759 103.804 216.036 103.685 216.282C103.567 216.526 103.398 216.717 103.178 216.854C102.959 216.99 102.707 217.059 102.422 217.059C101.992 217.059 101.644 216.909 101.376 216.61C101.11 216.312 100.978 215.916 100.978 215.424V215.386ZM101.522 215.45C101.522 215.802 101.604 216.084 101.766 216.297C101.93 216.51 102.148 216.616 102.422 216.616C102.697 216.616 102.916 216.509 103.078 216.294C103.24 216.077 103.321 215.774 103.321 215.386C103.321 215.038 103.238 214.757 103.072 214.542C102.908 214.325 102.689 214.217 102.416 214.217C102.148 214.217 101.933 214.323 101.769 214.536C101.604 214.749 101.522 215.054 101.522 215.45ZM104.411 215.389C104.411 214.902 104.526 214.512 104.757 214.217C104.987 213.92 105.289 213.771 105.662 213.771C106.033 213.771 106.327 213.898 106.544 214.152V212.5H107.086V217H106.588L106.562 216.66C106.345 216.926 106.043 217.059 105.656 217.059C105.289 217.059 104.989 216.908 104.757 216.607C104.526 216.307 104.411 215.914 104.411 215.43V215.389ZM104.953 215.45C104.953 215.81 105.027 216.091 105.176 216.294C105.324 216.497 105.529 216.599 105.791 216.599C106.135 216.599 106.386 216.444 106.544 216.136V214.68C106.382 214.381 106.133 214.231 105.797 214.231C105.531 214.231 105.324 214.334 105.176 214.539C105.027 214.744 104.953 215.048 104.953 215.45ZM109.245 217.059C108.815 217.059 108.466 216.918 108.196 216.637C107.927 216.354 107.792 215.976 107.792 215.503V215.403C107.792 215.089 107.852 214.809 107.971 214.562C108.092 214.314 108.26 214.121 108.475 213.982C108.691 213.842 108.926 213.771 109.178 213.771C109.59 213.771 109.91 213.907 110.139 214.179C110.367 214.45 110.481 214.839 110.481 215.345V215.57H108.334C108.342 215.883 108.433 216.136 108.606 216.329C108.782 216.521 109.005 216.616 109.274 216.616C109.466 216.616 109.628 216.577 109.761 216.499C109.894 216.421 110.01 216.317 110.109 216.188L110.44 216.446C110.175 216.854 109.776 217.059 109.245 217.059ZM109.178 214.217C108.959 214.217 108.775 214.297 108.627 214.457C108.479 214.615 108.387 214.838 108.352 215.125H109.939V215.084C109.924 214.809 109.85 214.596 109.717 214.445C109.584 214.293 109.404 214.217 109.178 214.217ZM111.7 217H111.158V212.5H111.7V217Z" fill="white"/>
<path d="M79.8164 222.323C79.79 222.549 79.7065 222.723 79.5659 222.846C79.4263 222.968 79.2402 223.029 79.0078 223.029C78.7559 223.029 78.5537 222.939 78.4014 222.758C78.25 222.578 78.1743 222.336 78.1743 222.033V221.828C78.1743 221.63 78.2095 221.456 78.2798 221.305C78.3511 221.155 78.4517 221.04 78.5815 220.959C78.7114 220.878 78.8618 220.838 79.0327 220.838C79.2593 220.838 79.4409 220.901 79.5776 221.028C79.7144 221.154 79.7939 221.329 79.8164 221.553H79.5337C79.5093 221.383 79.4561 221.26 79.374 221.184C79.293 221.107 79.1792 221.069 79.0327 221.069C78.853 221.069 78.7119 221.136 78.6094 221.269C78.5078 221.401 78.457 221.59 78.457 221.835V222.042C78.457 222.273 78.5054 222.458 78.6021 222.594C78.6987 222.731 78.834 222.799 79.0078 222.799C79.1641 222.799 79.2837 222.764 79.3667 222.694C79.4507 222.623 79.5063 222.499 79.5337 222.323H79.8164ZM80.0874 222.193C80.0874 222.038 80.1177 221.898 80.1782 221.774C80.2397 221.65 80.3247 221.554 80.4331 221.487C80.5425 221.419 80.667 221.386 80.8066 221.386C81.0225 221.386 81.1968 221.46 81.3296 221.61C81.4634 221.759 81.5303 221.958 81.5303 222.206V222.225C81.5303 222.379 81.5005 222.518 81.4409 222.641C81.3823 222.763 81.2979 222.858 81.1875 222.927C81.0781 222.995 80.9521 223.029 80.8096 223.029C80.5947 223.029 80.4204 222.955 80.2866 222.805C80.1538 222.656 80.0874 222.458 80.0874 222.212V222.193ZM80.3599 222.225C80.3599 222.401 80.4004 222.542 80.4814 222.648C80.5635 222.755 80.6729 222.808 80.8096 222.808C80.9473 222.808 81.0566 222.754 81.1377 222.647C81.2188 222.539 81.2593 222.387 81.2593 222.193C81.2593 222.019 81.2178 221.878 81.1348 221.771C81.0527 221.663 80.9434 221.608 80.8066 221.608C80.6729 221.608 80.5649 221.662 80.4829 221.768C80.4009 221.875 80.3599 222.027 80.3599 222.225ZM82.8486 222.843C82.7432 222.967 82.5884 223.029 82.3843 223.029C82.2153 223.029 82.0864 222.98 81.9976 222.883C81.9097 222.784 81.8652 222.639 81.8643 222.446V221.415H82.1353V222.439C82.1353 222.679 82.2329 222.799 82.4282 222.799C82.6353 222.799 82.7729 222.722 82.8413 222.568V221.415H83.1123V223H82.8545L82.8486 222.843ZM83.7817 221.415L83.7905 221.614C83.9116 221.462 84.0698 221.386 84.2651 221.386C84.6001 221.386 84.769 221.575 84.772 221.953V223H84.501V221.951C84.5 221.837 84.4736 221.752 84.4219 221.698C84.3711 221.643 84.2915 221.616 84.1831 221.616C84.0952 221.616 84.0181 221.639 83.9517 221.686C83.8853 221.733 83.8335 221.794 83.7964 221.871V223H83.5254V221.415H83.7817ZM85.5483 221.031V221.415H85.8442V221.625H85.5483V222.607C85.5483 222.671 85.5615 222.719 85.5879 222.751C85.6143 222.782 85.6592 222.798 85.7227 222.798C85.7539 222.798 85.7969 222.792 85.8516 222.78V223C85.7803 223.02 85.7109 223.029 85.6436 223.029C85.5225 223.029 85.4312 222.993 85.3696 222.919C85.3081 222.846 85.2773 222.742 85.2773 222.607V221.625H84.9888V221.415H85.2773V221.031H85.5483ZM86.9282 221.658C86.8872 221.651 86.8428 221.648 86.7949 221.648C86.6172 221.648 86.4966 221.724 86.4331 221.875V223H86.1621V221.415H86.4258L86.4302 221.598C86.519 221.457 86.645 221.386 86.8081 221.386C86.8608 221.386 86.9009 221.393 86.9282 221.406V221.658ZM87.7236 222.603L88.0928 221.415H88.3828L87.7456 223.245C87.647 223.508 87.4902 223.64 87.2754 223.64L87.2241 223.636L87.123 223.617V223.397L87.1963 223.403C87.2881 223.403 87.3594 223.384 87.4102 223.347C87.4619 223.31 87.5044 223.242 87.5376 223.144L87.5977 222.982L87.0322 221.415H87.3281L87.7236 222.603ZM89.4243 223.183H89.1914L90.082 220.867H90.3135L89.4243 223.183ZM92.9619 222.323C92.9355 222.549 92.8521 222.723 92.7114 222.846C92.5718 222.968 92.3857 223.029 92.1533 223.029C91.9014 223.029 91.6992 222.939 91.5469 222.758C91.3955 222.578 91.3198 222.336 91.3198 222.033V221.828C91.3198 221.63 91.355 221.456 91.4253 221.305C91.4966 221.155 91.5972 221.04 91.7271 220.959C91.8569 220.878 92.0073 220.838 92.1782 220.838C92.4048 220.838 92.5864 220.901 92.7231 221.028C92.8599 221.154 92.9395 221.329 92.9619 221.553H92.6792C92.6548 221.383 92.6016 221.26 92.5195 221.184C92.4385 221.107 92.3247 221.069 92.1782 221.069C91.9985 221.069 91.8574 221.136 91.7549 221.269C91.6533 221.401 91.6025 221.59 91.6025 221.835V222.042C91.6025 222.273 91.6509 222.458 91.7476 222.594C91.8442 222.731 91.9795 222.799 92.1533 222.799C92.3096 222.799 92.4292 222.764 92.5122 222.694C92.5962 222.623 92.6519 222.499 92.6792 222.323H92.9619ZM93.5991 223H93.3281V221.415H93.5991V223ZM93.3062 220.995C93.3062 220.951 93.3193 220.914 93.3457 220.883C93.373 220.853 93.4131 220.838 93.4658 220.838C93.5186 220.838 93.5586 220.853 93.5859 220.883C93.6133 220.914 93.627 220.951 93.627 220.995C93.627 221.039 93.6133 221.075 93.5859 221.104C93.5586 221.134 93.5186 221.148 93.4658 221.148C93.4131 221.148 93.373 221.134 93.3457 221.104C93.3193 221.075 93.3062 221.039 93.3062 220.995ZM94.4019 221.031V221.415H94.6978V221.625H94.4019V222.607C94.4019 222.671 94.415 222.719 94.4414 222.751C94.4678 222.782 94.5127 222.798 94.5762 222.798C94.6074 222.798 94.6504 222.792 94.7051 222.78V223C94.6338 223.02 94.5645 223.029 94.4971 223.029C94.376 223.029 94.2847 222.993 94.2231 222.919C94.1616 222.846 94.1309 222.742 94.1309 222.607V221.625H93.8423V221.415H94.1309V221.031H94.4019ZM95.5342 222.603L95.9033 221.415H96.1934L95.5562 223.245C95.4575 223.508 95.3008 223.64 95.0859 223.64L95.0347 223.636L94.9336 223.617V223.397L95.0068 223.403C95.0986 223.403 95.1699 223.384 95.2207 223.347C95.2725 223.31 95.3149 223.242 95.3481 223.144L95.4082 222.982L94.8428 221.415H95.1387L95.5342 222.603Z" fill="white" fill-opacity="0.5"/>
<path d="M123 143H138V150H123V143Z" fill="#C4C4C4"/>
<path d="M125 151H138V158H125V151Z" fill="#C4C4C4"/>
<path d="M127 159H138V166H127V159Z" fill="#C4C4C4"/>
<defs>
<linearGradient id="paint0_linear" x1="56.5419" y1="23.9947" x2="70.3137" y2="16.8182" gradientUnits="userSpaceOnUse">
<stop stop-color="#F83479"/>
<stop offset="1" stop-color="#FF819C"/>
</linearGradient>
<linearGradient id="paint1_linear" x1="47.3081" y1="16.5721" x2="51.6231" y2="22.0358" gradientUnits="userSpaceOnUse">
<stop stop-color="#FF819C"/>
<stop offset="0.2594" stop-color="#FF7E9A"/>
<stop offset="0.4757" stop-color="#FE7396"/>
<stop offset="0.6765" stop-color="#FC628E"/>
<stop offset="0.8668" stop-color="#FA4A83"/>
<stop offset="1" stop-color="#F83479"/>
</linearGradient>
<linearGradient id="paint2_linear" x1="49.6679" y1="20.8897" x2="40.4575" y2="-0.876499" gradientUnits="userSpaceOnUse">
<stop stop-color="white" stop-opacity="0"/>
<stop offset="1" stop-color="white"/>
</linearGradient>
<linearGradient id="paint3_linear" x1="49.6078" y1="20.5632" x2="51.9365" y2="27.4717" gradientUnits="userSpaceOnUse">
<stop stop-color="#F82814" stop-opacity="0"/>
<stop offset="1" stop-color="#C0272D"/>
</linearGradient>
<linearGradient id="paint4_linear" x1="49.3825" y1="18.146" x2="43.6871" y2="12.257" gradientUnits="userSpaceOnUse">
<stop stop-color="#F82814" stop-opacity="0"/>
<stop offset="1" stop-color="#C0272D"/>
</linearGradient>
</defs>
</svg>
