<svg width="139" height="266" viewBox="0 0 139 266" fill="none" xmlns="http://www.w3.org/2000/svg">
<rect width="139" height="266" rx="5" fill="black" fill-opacity="0.46"/>
<rect x="0.5" y="0.5" width="138" height="265" rx="4.5" stroke="white" stroke-opacity="0.35"/>
<path d="M57.5967 19.0293C57.5967 18.3231 57.8377 17.7347 58.3197 17.2639C58.8016 16.7887 59.419 16.551 60.1719 16.551C60.9247 16.551 61.5421 16.7887 62.0241 17.2639C62.5061 17.7347 62.747 18.3231 62.747 19.0293C62.747 19.7535 62.5061 20.3578 62.0241 20.8421C61.5421 21.3264 60.9247 21.5686 60.1719 21.5686C59.419 21.5686 58.8016 21.3264 58.3197 20.8421C57.8377 20.3578 57.5967 19.7535 57.5967 19.0293ZM58.843 19.0293C58.843 19.4457 58.9669 19.792 59.2148 20.0681C59.4672 20.3442 59.7863 20.4823 60.1719 20.4823C60.5575 20.4823 60.8742 20.3442 61.1221 20.0681C61.3745 19.792 61.5008 19.4457 61.5008 19.0293C61.5008 18.6309 61.3745 18.3005 61.1221 18.038C60.8742 17.7709 60.5575 17.6374 60.1719 17.6374C59.7863 17.6374 59.4672 17.7709 59.2148 18.038C58.9669 18.3005 58.843 18.6309 58.843 19.0293ZM63.5135 21.4871V16.6325H64.7322L66.0956 18.9003C66.1506 18.9953 66.2126 19.113 66.2815 19.2533C66.3503 19.3891 66.4054 19.5023 66.4467 19.5928L66.5087 19.7286H66.5225C66.4857 19.3801 66.4674 19.104 66.4674 18.9003V16.6325H67.6723V21.4871H66.4605L65.0903 19.2262C65.0352 19.1311 64.9732 19.0157 64.9044 18.8799C64.8355 18.7396 64.7804 18.6241 64.7391 18.5336L64.6771 18.3978H64.6634C64.7001 18.7464 64.7185 19.0225 64.7185 19.2262V21.4871H63.5135ZM68.7045 21.4871V16.6325H71.7892V17.651H69.9095V18.5336H71.4105V19.5521H69.9095V20.4687H71.8856V21.4871H68.7045Z" fill="url(#paint0_linear)"/>
<path d="M73.2915 21.4871V16.7343H73.5669L76.3142 20.4619L76.7067 21.0594H76.7205C76.6975 20.8195 76.6861 20.6203 76.6861 20.4619V16.7343H76.9821V21.4871H76.7067L73.9594 17.7596L73.5669 17.1621H73.5532C73.5761 17.402 73.5876 17.6012 73.5876 17.7596V21.4871H73.2915ZM78.4556 21.4871V16.7343H78.7517V21.4871H78.4556ZM79.9005 19.1107C79.9005 18.4227 80.13 17.8411 80.589 17.3658C81.0526 16.8905 81.6241 16.6529 82.3035 16.6529C82.9737 16.6529 83.5337 16.8317 83.9836 17.1892L83.8046 17.4133C83.6255 17.2685 83.3983 17.153 83.1229 17.067C82.8475 16.9765 82.5743 16.9312 82.3035 16.9312C81.7022 16.9312 81.2018 17.1395 80.8025 17.5559C80.4077 17.9723 80.2103 18.4906 80.2103 19.1107C80.2103 19.7309 80.4031 20.2491 80.7887 20.6656C81.1789 21.082 81.67 21.2902 82.2622 21.2902C82.5743 21.2902 82.875 21.2201 83.1642 21.0798C83.458 20.9394 83.7081 20.7493 83.9147 20.5094V19.5928H83.054V19.3212H84.2108V21.4871H83.9147V21.073L83.9216 20.8693H83.9078C83.7196 21.0775 83.4809 21.2472 83.1917 21.3785C82.9025 21.5052 82.5927 21.5686 82.2622 21.5686C81.592 21.5686 81.0297 21.3332 80.5752 20.8625C80.1254 20.3872 79.9005 19.8033 79.9005 19.1107ZM85.4151 21.4871V16.7343H85.7112V18.9682H88.7684V16.7343H89.0644V21.4871H88.7684V19.2397H85.7112V21.4871H85.4151ZM91.7233 21.4871V17.0059H89.9261V16.7343H93.8165V17.0059H92.0193V21.4871H91.7233Z" fill="white"/>
<path d="M48.344 24.3671C48.1161 24.3671 47.8879 24.3139 47.6838 24.2132C47.0674 23.9091 45.8636 23.2567 44.728 22.3057C43.2507 21.0686 42.3751 19.7408 42.1255 18.3589C41.9316 17.2856 42.2084 16.1898 42.885 15.3525C43.5117 14.5772 44.3997 14.1241 45.3854 14.0768C45.4434 14.074 45.5021 14.0726 45.56 14.0726C46.4835 14.0726 47.3554 14.4236 48.0149 15.0609C48.1341 15.176 48.2439 15.2982 48.3439 15.4263C48.444 15.2981 48.5538 15.176 48.673 15.0608C49.3326 14.4235 50.2044 14.0726 51.128 14.0726C51.1858 14.0726 51.2445 14.074 51.3025 14.0768C52.2883 14.1242 53.1762 14.5772 53.8029 15.3527C54.4796 16.1898 54.7564 17.2856 54.5624 18.3589C54.3128 19.7406 53.4372 21.0685 51.96 22.3056C50.8244 23.2566 49.6208 23.9089 49.0042 24.2131C48.8002 24.3139 48.5719 24.3671 48.344 24.3671Z" fill="url(#paint1_linear)"/>
<path d="M48.3445 23.6083C48.1814 23.6083 48.0178 23.5715 47.8716 23.5018C47.3003 23.2297 46.1849 22.6465 45.1347 21.7976C43.795 20.7148 43.0028 19.5629 42.7802 18.3738C42.6134 17.483 42.8509 16.5743 43.4316 15.8808C43.964 15.2451 44.7174 14.8737 45.5531 14.8349C45.6026 14.8325 45.6527 14.8314 45.702 14.8314C46.4883 14.8314 47.2304 15.1198 47.7919 15.6433C47.8928 15.7373 47.9871 15.8385 48.0724 15.944L48.3447 16.2806L48.6169 15.944C48.7024 15.8385 48.7967 15.7372 48.8975 15.6433C49.4589 15.1197 50.2012 14.8314 50.9874 14.8314C51.0368 14.8314 51.0868 14.8325 51.1363 14.8349C51.972 14.8737 52.7254 15.2451 53.2578 15.8808C53.8385 16.5743 54.0759 17.483 53.9092 18.3738C53.6867 19.5629 52.8946 20.7148 51.5549 21.7976C50.5045 22.6466 49.3892 23.2298 48.8179 23.5018C48.6714 23.5716 48.5078 23.6083 48.3445 23.6083Z" fill="url(#paint2_linear)"/>
<path d="M53.803 15.3528C53.5681 15.0622 53.2964 14.8169 52.9967 14.6211C53.5438 15.4223 53.756 16.4154 53.58 17.3902C53.3303 18.7719 52.4547 20.0998 50.9775 21.3368C49.842 22.2878 48.6383 22.9402 48.0217 23.2444C47.8177 23.345 47.5894 23.3982 47.3615 23.3982C47.1336 23.3982 46.9054 23.345 46.7013 23.2444C46.0849 22.9402 44.8811 22.2878 43.7455 21.3368C43.6969 21.296 43.6489 21.2553 43.6016 21.2143C43.9268 21.5849 44.3022 21.9491 44.728 22.3057C45.8636 23.2567 47.0674 23.9091 47.6839 24.2132C47.8879 24.3139 48.1162 24.3671 48.3441 24.3671C48.5719 24.3671 48.8002 24.3139 49.0042 24.2132C49.6208 23.9091 50.8245 23.2567 51.9601 22.3057C53.4374 21.0686 54.313 19.7408 54.5625 18.359C54.7565 17.2857 54.4796 16.1899 53.803 15.3528Z" fill="url(#paint3_linear)"/>
<path d="M51.3027 14.0769C51.2448 14.0741 51.186 14.0727 51.1281 14.0727C50.2046 14.0727 49.3327 14.4237 48.6732 15.0609C48.5541 15.176 48.4443 15.2982 48.3442 15.4263V24.3669C48.5721 24.3669 48.8004 24.3138 49.0044 24.2131C49.6209 23.9089 50.8247 23.2565 51.9603 22.3056C53.4376 21.0685 54.3131 19.7406 54.5628 18.3589C54.7567 17.2856 54.4799 16.1898 53.8032 15.3527C53.1764 14.5773 52.2883 14.1242 51.3027 14.0769Z" fill="url(#paint4_linear)"/>
<g clip-path="url(#clip0)">
<rect x="1" y="39" width="137" height="137" fill="#6A6A6A" fill-opacity="0.33"/>
<path d="M20.8911 149.515H20.3257L18.1782 146.228V149.515H17.6128V145.25H18.1782L20.3315 148.552V145.25H20.8911V149.515ZM23.7622 149.515C23.731 149.453 23.7056 149.342 23.686 149.181C23.4341 149.443 23.1333 149.574 22.7837 149.574C22.4712 149.574 22.2144 149.486 22.0132 149.31C21.814 149.133 21.7144 148.908 21.7144 148.637C21.7144 148.306 21.8394 148.051 22.0894 147.869C22.3413 147.685 22.6948 147.594 23.1499 147.594H23.6772V147.345C23.6772 147.155 23.6206 147.005 23.5073 146.893C23.394 146.78 23.2271 146.723 23.0063 146.723C22.813 146.723 22.6509 146.772 22.52 146.87C22.3892 146.968 22.3237 147.086 22.3237 147.224H21.7788C21.7788 147.066 21.8345 146.914 21.9458 146.767C22.0591 146.619 22.2114 146.502 22.4028 146.416C22.5962 146.33 22.8081 146.287 23.0386 146.287C23.4038 146.287 23.6899 146.379 23.897 146.562C24.104 146.744 24.2114 146.995 24.2192 147.315V148.774C24.2192 149.065 24.2563 149.297 24.3306 149.469V149.515H23.7622ZM22.8628 149.102C23.0327 149.102 23.1938 149.058 23.3462 148.971C23.4985 148.883 23.6089 148.768 23.6772 148.628V147.977H23.2524C22.5884 147.977 22.2563 148.172 22.2563 148.56C22.2563 148.73 22.313 148.863 22.4263 148.959C22.5396 149.055 22.6851 149.102 22.8628 149.102ZM25.5786 146.346L25.5933 146.697C25.8257 146.424 26.1392 146.287 26.5337 146.287C26.9771 146.287 27.2788 146.457 27.439 146.797C27.5444 146.644 27.6812 146.521 27.8491 146.428C28.019 146.334 28.2192 146.287 28.4497 146.287C29.145 146.287 29.4985 146.655 29.5103 147.391V149.515H28.9683V147.424C28.9683 147.197 28.9165 147.028 28.813 146.917C28.7095 146.804 28.5356 146.747 28.2915 146.747C28.0903 146.747 27.9233 146.807 27.7905 146.929C27.6577 147.048 27.5806 147.209 27.5591 147.412V149.515H27.0142V147.438C27.0142 146.977 26.7886 146.747 26.3374 146.747C25.9819 146.747 25.7388 146.898 25.6079 147.201V149.515H25.0659V146.346H25.5786ZM31.646 149.574C31.2163 149.574 30.8667 149.433 30.5972 149.152C30.3276 148.869 30.1929 148.491 30.1929 148.018V147.919C30.1929 147.604 30.2524 147.324 30.3716 147.078C30.4927 146.83 30.6606 146.637 30.8755 146.498C31.0923 146.357 31.3267 146.287 31.5786 146.287C31.9907 146.287 32.311 146.423 32.5396 146.694C32.7681 146.966 32.8823 147.354 32.8823 147.86V148.086H30.7349C30.7427 148.398 30.8335 148.651 31.0073 148.845C31.1831 149.036 31.4058 149.132 31.6753 149.132C31.8667 149.132 32.0288 149.093 32.1616 149.014C32.2944 148.936 32.4106 148.833 32.5103 148.704L32.8413 148.962C32.5757 149.37 32.1772 149.574 31.646 149.574ZM31.5786 146.732C31.3599 146.732 31.1763 146.812 31.0278 146.973C30.8794 147.131 30.7876 147.353 30.7524 147.64H32.3403V147.599C32.3247 147.324 32.2505 147.111 32.1177 146.961C31.9849 146.808 31.8052 146.732 31.5786 146.732ZM35.812 145.25L37.2065 148.73L38.6011 145.25H39.3306V149.515H38.7681V147.854L38.8208 146.061L37.4204 149.515H36.9897L35.5923 146.07L35.6479 147.854V149.515H35.0854V145.25H35.812ZM40.0952 147.901C40.0952 147.591 40.1558 147.311 40.2769 147.063C40.3999 146.815 40.5698 146.624 40.7866 146.489C41.0054 146.354 41.2544 146.287 41.5337 146.287C41.9653 146.287 42.314 146.436 42.5796 146.735C42.8472 147.034 42.981 147.431 42.981 147.928V147.966C42.981 148.274 42.9214 148.552 42.8022 148.798C42.6851 149.042 42.5161 149.232 42.2954 149.369C42.0767 149.506 41.8247 149.574 41.5396 149.574C41.1099 149.574 40.7612 149.425 40.4937 149.126C40.228 148.827 40.0952 148.431 40.0952 147.939V147.901ZM40.6401 147.966C40.6401 148.317 40.7212 148.599 40.8833 148.812C41.0474 149.025 41.2661 149.132 41.5396 149.132C41.8149 149.132 42.0337 149.024 42.1958 148.809C42.3579 148.593 42.439 148.29 42.439 147.901C42.439 147.554 42.356 147.272 42.1899 147.057C42.0259 146.841 41.8071 146.732 41.5337 146.732C41.2661 146.732 41.0503 146.839 40.8862 147.052C40.7222 147.264 40.6401 147.569 40.6401 147.966ZM43.5288 147.904C43.5288 147.418 43.644 147.027 43.8745 146.732C44.105 146.435 44.4067 146.287 44.7798 146.287C45.1509 146.287 45.4448 146.414 45.6616 146.668V145.015H46.2036V149.515H45.7056L45.6792 149.176C45.4624 149.441 45.1606 149.574 44.7739 149.574C44.4067 149.574 44.1069 149.424 43.8745 149.123C43.644 148.822 43.5288 148.43 43.5288 147.945V147.904ZM44.0708 147.966C44.0708 148.325 44.145 148.606 44.2935 148.809C44.4419 149.013 44.647 149.114 44.9087 149.114C45.2524 149.114 45.5034 148.96 45.6616 148.651V147.195C45.4995 146.896 45.2505 146.747 44.9146 146.747C44.6489 146.747 44.4419 146.849 44.2935 147.055C44.145 147.26 44.0708 147.563 44.0708 147.966ZM48.3628 149.574C47.9331 149.574 47.5835 149.433 47.314 149.152C47.0444 148.869 46.9097 148.491 46.9097 148.018V147.919C46.9097 147.604 46.9692 147.324 47.0884 147.078C47.2095 146.83 47.3774 146.637 47.5923 146.498C47.8091 146.357 48.0435 146.287 48.2954 146.287C48.7075 146.287 49.0278 146.423 49.2563 146.694C49.4849 146.966 49.5991 147.354 49.5991 147.86V148.086H47.4517C47.4595 148.398 47.5503 148.651 47.7241 148.845C47.8999 149.036 48.1226 149.132 48.3921 149.132C48.5835 149.132 48.7456 149.093 48.8784 149.014C49.0112 148.936 49.1274 148.833 49.2271 148.704L49.5581 148.962C49.2925 149.37 48.894 149.574 48.3628 149.574ZM48.2954 146.732C48.0767 146.732 47.8931 146.812 47.7446 146.973C47.5962 147.131 47.5044 147.353 47.4692 147.64H49.0571V147.599C49.0415 147.324 48.9673 147.111 48.8345 146.961C48.7017 146.808 48.522 146.732 48.2954 146.732ZM50.8179 149.515H50.2759V145.015H50.8179V149.515Z" fill="white"/>
<path d="M18.9341 158.55C18.9077 158.776 18.8242 158.95 18.6836 159.073C18.5439 159.195 18.3579 159.256 18.1255 159.256C17.8735 159.256 17.6714 159.166 17.519 158.985C17.3677 158.804 17.292 158.563 17.292 158.26V158.055C17.292 157.857 17.3271 157.682 17.3975 157.532C17.4688 157.382 17.5693 157.266 17.6992 157.186C17.8291 157.105 17.9795 157.065 18.1504 157.065C18.377 157.065 18.5586 157.128 18.6953 157.255C18.832 157.381 18.9116 157.556 18.9341 157.78H18.6514C18.627 157.61 18.5737 157.487 18.4917 157.41C18.4106 157.334 18.2969 157.296 18.1504 157.296C17.9707 157.296 17.8296 157.363 17.7271 157.495C17.6255 157.628 17.5747 157.817 17.5747 158.062V158.269C17.5747 158.5 17.623 158.684 17.7197 158.821C17.8164 158.958 17.9517 159.026 18.1255 159.026C18.2817 159.026 18.4014 158.991 18.4844 158.921C18.5684 158.849 18.624 158.726 18.6514 158.55H18.9341ZM19.2051 158.42C19.2051 158.264 19.2354 158.125 19.2959 158.001C19.3574 157.877 19.4424 157.781 19.5508 157.714C19.6602 157.646 19.7847 157.613 19.9243 157.613C20.1401 157.613 20.3145 157.687 20.4473 157.837C20.5811 157.986 20.6479 158.185 20.6479 158.433V158.452C20.6479 158.606 20.6182 158.745 20.5586 158.868C20.5 158.99 20.4155 159.085 20.3052 159.154C20.1958 159.222 20.0698 159.256 19.9272 159.256C19.7124 159.256 19.5381 159.181 19.4043 159.032C19.2715 158.883 19.2051 158.685 19.2051 158.439V158.42ZM19.4775 158.452C19.4775 158.628 19.5181 158.769 19.5991 158.875C19.6812 158.982 19.7905 159.035 19.9272 159.035C20.0649 159.035 20.1743 158.981 20.2554 158.874C20.3364 158.765 20.377 158.614 20.377 158.42C20.377 158.246 20.3354 158.105 20.2524 157.998C20.1704 157.889 20.061 157.835 19.9243 157.835C19.7905 157.835 19.6826 157.888 19.6006 157.995C19.5186 158.101 19.4775 158.254 19.4775 158.452ZM21.9663 159.07C21.8608 159.194 21.7061 159.256 21.502 159.256C21.333 159.256 21.2041 159.207 21.1152 159.11C21.0273 159.011 20.9829 158.865 20.9819 158.673V157.642H21.2529V158.666C21.2529 158.906 21.3506 159.026 21.5459 159.026C21.7529 159.026 21.8906 158.949 21.959 158.795V157.642H22.23V159.227H21.9722L21.9663 159.07ZM22.8994 157.642L22.9082 157.841C23.0293 157.689 23.1875 157.613 23.3828 157.613C23.7178 157.613 23.8867 157.802 23.8896 158.179V159.227H23.6187V158.178C23.6177 158.064 23.5913 157.979 23.5396 157.925C23.4888 157.87 23.4092 157.843 23.3008 157.843C23.2129 157.843 23.1357 157.866 23.0693 157.913C23.0029 157.96 22.9512 158.021 22.9141 158.097V159.227H22.6431V157.642H22.8994ZM24.666 157.258V157.642H24.9619V157.851H24.666V158.834C24.666 158.898 24.6792 158.946 24.7056 158.978C24.7319 159.009 24.7769 159.025 24.8403 159.025C24.8716 159.025 24.9146 159.019 24.9692 159.007V159.227C24.8979 159.246 24.8286 159.256 24.7612 159.256C24.6401 159.256 24.5488 159.219 24.4873 159.146C24.4258 159.073 24.395 158.969 24.395 158.834V157.851H24.1064V157.642H24.395V157.258H24.666ZM26.0459 157.885C26.0049 157.878 25.9604 157.875 25.9126 157.875C25.7349 157.875 25.6143 157.95 25.5508 158.102V159.227H25.2798V157.642H25.5435L25.5479 157.825C25.6367 157.683 25.7627 157.613 25.9258 157.613C25.9785 157.613 26.0186 157.619 26.0459 157.633V157.885ZM26.8413 158.83L27.2104 157.642H27.5005L26.8633 159.471C26.7646 159.735 26.6079 159.867 26.3931 159.867L26.3418 159.863L26.2407 159.844V159.624L26.314 159.63C26.4058 159.63 26.4771 159.611 26.5278 159.574C26.5796 159.537 26.6221 159.469 26.6553 159.37L26.7153 159.209L26.1499 157.642H26.4458L26.8413 158.83ZM28.542 159.41H28.3091L29.1997 157.094H29.4312L28.542 159.41ZM32.0796 158.55C32.0532 158.776 31.9697 158.95 31.8291 159.073C31.6895 159.195 31.5034 159.256 31.271 159.256C31.019 159.256 30.8169 159.166 30.6646 158.985C30.5132 158.804 30.4375 158.563 30.4375 158.26V158.055C30.4375 157.857 30.4727 157.682 30.543 157.532C30.6143 157.382 30.7148 157.266 30.8447 157.186C30.9746 157.105 31.125 157.065 31.2959 157.065C31.5225 157.065 31.7041 157.128 31.8408 157.255C31.9775 157.381 32.0571 157.556 32.0796 157.78H31.7969C31.7725 157.61 31.7192 157.487 31.6372 157.41C31.5562 157.334 31.4424 157.296 31.2959 157.296C31.1162 157.296 30.9751 157.363 30.8726 157.495C30.771 157.628 30.7202 157.817 30.7202 158.062V158.269C30.7202 158.5 30.7686 158.684 30.8652 158.821C30.9619 158.958 31.0972 159.026 31.271 159.026C31.4272 159.026 31.5469 158.991 31.6299 158.921C31.7139 158.849 31.7695 158.726 31.7969 158.55H32.0796ZM32.7168 159.227H32.4458V157.642H32.7168V159.227ZM32.4238 157.221C32.4238 157.177 32.437 157.14 32.4634 157.11C32.4907 157.08 32.5308 157.065 32.5835 157.065C32.6362 157.065 32.6763 157.08 32.7036 157.11C32.731 157.14 32.7446 157.177 32.7446 157.221C32.7446 157.265 32.731 157.302 32.7036 157.331C32.6763 157.361 32.6362 157.375 32.5835 157.375C32.5308 157.375 32.4907 157.361 32.4634 157.331C32.437 157.302 32.4238 157.265 32.4238 157.221ZM33.5195 157.258V157.642H33.8154V157.851H33.5195V158.834C33.5195 158.898 33.5327 158.946 33.5591 158.978C33.5854 159.009 33.6304 159.025 33.6938 159.025C33.7251 159.025 33.7681 159.019 33.8228 159.007V159.227C33.7515 159.246 33.6821 159.256 33.6147 159.256C33.4937 159.256 33.4023 159.219 33.3408 159.146C33.2793 159.073 33.2485 158.969 33.2485 158.834V157.851H32.96V157.642H33.2485V157.258H33.5195ZM34.6519 158.83L35.021 157.642H35.311L34.6738 159.471C34.5752 159.735 34.4185 159.867 34.2036 159.867L34.1523 159.863L34.0513 159.844V159.624L34.1245 159.63C34.2163 159.63 34.2876 159.611 34.3384 159.574C34.3901 159.537 34.4326 159.469 34.4658 159.37L34.5259 159.209L33.9604 157.642H34.2563L34.6519 158.83Z" fill="white" fill-opacity="0.5"/>
<path d="M107.779 47.4742H138V57.3608H107.779V47.4742Z" fill="#C4C4C4"/>
<path d="M111.809 58.7732H138V68.6598H111.809V58.7732Z" fill="#C4C4C4"/>
<path d="M115.838 70.0722H138V79.9588H115.838V70.0722Z" fill="#C4C4C4"/>
<rect x="1" y="177" width="137" height="137" fill="#6A6A6A" fill-opacity="0.33"/>
<path d="M107.779 185.474H138V195.361H107.779V185.474Z" fill="#C4C4C4"/>
<path d="M111.809 196.773H138V206.66H111.809V196.773Z" fill="#C4C4C4"/>
<path d="M115.838 208.072H138V217.959H115.838V208.072Z" fill="#C4C4C4"/>
</g>
<defs>
<linearGradient id="paint0_linear" x1="56.5419" y1="23.9947" x2="70.3137" y2="16.8182" gradientUnits="userSpaceOnUse">
<stop stop-color="#F83479"/>
<stop offset="1" stop-color="#FF819C"/>
</linearGradient>
<linearGradient id="paint1_linear" x1="47.3081" y1="16.5721" x2="51.6231" y2="22.0358" gradientUnits="userSpaceOnUse">
<stop stop-color="#FF819C"/>
<stop offset="0.2594" stop-color="#FF7E9A"/>
<stop offset="0.4757" stop-color="#FE7396"/>
<stop offset="0.6765" stop-color="#FC628E"/>
<stop offset="0.8668" stop-color="#FA4A83"/>
<stop offset="1" stop-color="#F83479"/>
</linearGradient>
<linearGradient id="paint2_linear" x1="49.6679" y1="20.8897" x2="40.4575" y2="-0.876499" gradientUnits="userSpaceOnUse">
<stop stop-color="white" stop-opacity="0"/>
<stop offset="1" stop-color="white"/>
</linearGradient>
<linearGradient id="paint3_linear" x1="49.6078" y1="20.5632" x2="51.9365" y2="27.4717" gradientUnits="userSpaceOnUse">
<stop stop-color="#F82814" stop-opacity="0"/>
<stop offset="1" stop-color="#C0272D"/>
</linearGradient>
<linearGradient id="paint4_linear" x1="49.3825" y1="18.146" x2="43.6871" y2="12.257" gradientUnits="userSpaceOnUse">
<stop stop-color="#F82814" stop-opacity="0"/>
<stop offset="1" stop-color="#C0272D"/>
</linearGradient>
<clipPath id="clip0">
<path d="M1 39H138V261C138 263.209 136.209 265 134 265H5C2.79086 265 1 263.209 1 261V39Z" fill="white"/>
</clipPath>
</defs>
</svg>
